<svg width="500" height="500" viewBox="0 0 500 500" fill="none" xmlns="http://www.w3.org/2000/svg">
<g clip-path="url(#clip0_61_10678)">
<path fill-rule="evenodd" clip-rule="evenodd" d="M156.967 145.865C156.967 135.269 165.557 126.68 176.152 126.68H267.964C278.559 126.68 287.149 135.269 287.149 145.865C287.149 156.46 295.738 165.049 306.333 165.049H349.499C360.473 165.049 369.369 173.945 369.369 184.919V189.715C369.369 198.04 362.62 204.789 354.295 204.789C345.97 204.789 339.222 211.538 339.222 219.863V221.233C339.222 230.315 346.584 237.677 355.666 237.677H398.087C408.682 237.677 417.272 246.266 417.272 256.862C417.272 267.457 408.682 276.047 398.087 276.047H369.995C361.292 276.047 354.236 283.102 354.236 291.805C354.236 300.509 361.292 307.564 369.995 307.564H383.31C394.041 307.564 402.739 316.34 402.739 327.07C402.739 337.716 394.109 346.422 383.463 346.422H379.794C371.174 346.422 364.186 353.41 364.186 362.03C364.186 370.65 357.198 377.638 348.578 377.638H239.554C230.934 377.638 223.946 370.65 223.946 362.03C223.946 353.41 216.958 346.422 208.338 346.422H104.829C94.0987 346.422 85.3999 337.724 85.3999 326.993C85.3999 316.263 94.0986 307.564 104.829 307.564H167.186C175.889 307.564 182.945 300.509 182.945 291.805C182.945 283.102 175.889 276.047 167.186 276.047H126.762C116.166 276.047 107.577 267.457 107.577 256.862C107.577 246.266 116.166 237.677 126.762 237.677H173.412C182.493 237.677 189.856 230.315 189.856 221.233C189.856 212.151 182.493 204.789 173.412 204.789H139.839C128.865 204.789 119.969 195.893 119.969 184.919V183.548C119.969 173.332 128.252 165.049 138.468 165.049C148.685 165.049 156.967 156.767 156.967 146.55V145.865Z" fill="#D8DDEB"/>
<path d="M166 95L171.402 109.598L186 115L171.402 120.402L166 135L160.598 120.402L146 115L160.598 109.598L166 95Z" fill="#88CC43"/>
<path d="M171.485 346.201L167.584 354.686L171.485 363.172L163 359.27L154.515 363.172L158.416 354.686L154.515 346.201L163 350.103L171.485 346.201Z" fill="#7ACDFF"/>
<path d="M371 198.686L374.241 207.445L383 210.686L374.241 213.927L371 222.686L367.759 213.927L359 210.686L367.759 207.445L371 198.686Z" fill="#CC9D43"/>
<path d="M293.997 180.438L284.607 174.796C272.574 167.564 259.099 162.799 245.228 160.821C237.206 159.677 229.852 165.514 229.288 173.568L228.386 186.45C228.239 188.551 228.413 190.665 228.903 192.718L231.445 203.388L229.753 226.677L220.614 240.216C218.156 247.683 222.13 255.793 229.569 258.489L232.074 259.396L248.088 255.873L272.898 216.198L282.088 211.422C283.076 210.909 284.02 210.317 284.911 209.652L295.197 201.975C302.572 196.47 301.945 185.215 293.997 180.438Z" fill="#FF0000"/>
<path d="M261.089 171.324L257.242 169.61L262.363 161.361L263.41 138.216C263.754 130.602 270.047 124.641 277.709 124.669C286.325 124.701 293.03 132.219 292.029 140.726L289.15 165.218L278.392 163.777L280.643 173.138L278.537 173.503C272.645 174.525 266.568 173.766 261.089 171.324Z" fill="#FF0000"/>
<path d="M283.062 183.478L294.154 208.766L298.509 215.994C300.868 219.908 303.582 223.598 306.618 227.017L313.301 234.543C316.859 235.367 320.534 233.725 322.283 230.528L322.733 229.706L314.92 210.668L305.363 194.631L302.163 188.766C298.919 182.82 292.647 179.141 285.85 179.197C283.649 179.216 282.181 181.469 283.062 183.478Z" fill="#FF0000"/>
<path d="M346.103 276.387L347.497 276.894C348.758 277.352 350.177 276.918 350.974 275.83L340.447 259.218L333.545 245.254C331.395 240.905 328.742 236.827 325.64 233.102L318.993 225.121L318.043 225.176C314.398 225.387 311.317 227.99 310.499 231.552L311.54 235.151C313.972 243.561 319.423 250.758 326.853 255.369C328.559 256.428 330.092 257.741 331.4 259.264L346.103 276.387Z" fill="#FF0000"/>
<path fill-rule="evenodd" clip-rule="evenodd" d="M342.552 273.713L343.018 272.697C343.821 270.948 345.889 270.179 347.64 270.979C348.301 271.281 348.851 271.781 349.214 272.411L354.034 280.775C354.179 281.025 354.302 281.288 354.403 281.559L356.489 287.169C356.658 287.623 356.762 288.098 356.8 288.581L357.265 294.594L357.153 299.571C357.139 300.187 356.492 300.581 355.939 300.312C355.166 299.936 354.637 299.194 354.532 298.341L354.212 295.729L354.035 296.381C353.867 297.001 353.035 297.113 352.709 296.56C352.41 296.054 352.329 295.448 352.483 294.881L353.08 292.683L352.157 288.865L350.135 284.763L347.485 282.974L347.721 285.485C347.879 287.166 346.889 288.743 345.306 289.332C344.701 289.557 344.056 289.114 344.048 288.469L343.997 284.271L342.83 281.135C342.257 279.592 342.058 277.935 342.249 276.301L342.552 273.713Z" fill="#FF0000"/>
<path d="M255.401 172.345L228.969 180.338L220.645 181.722C216.137 182.471 211.569 182.804 206.997 182.717L196.934 182.525C193.996 180.355 192.858 176.493 194.152 173.087L194.485 172.211L214.035 165.785L232.436 162.634L238.973 161.258C245.601 159.862 252.473 162.241 256.845 167.445C258.261 169.131 257.501 171.711 255.401 172.345Z" fill="#FF0000"/>
<path d="M187.65 230.67L186.544 231.66C185.544 232.555 184.066 232.68 182.921 231.967L186.509 212.63L187.719 197.1C188.096 192.264 189.04 187.491 190.533 182.879L193.732 172.998L194.634 172.695C198.096 171.534 201.925 172.804 204.01 175.806L204.383 179.533C205.255 188.245 202.874 196.953 197.694 203.999C196.505 205.616 195.57 207.406 194.924 209.305L187.65 230.67Z" fill="#FF0000"/>
<path fill-rule="evenodd" clip-rule="evenodd" d="M189.552 230.182L188.782 229.372C187.455 227.978 185.25 227.921 183.853 229.245C183.325 229.745 182.967 230.397 182.828 231.11L180.98 240.585C180.925 240.869 180.893 241.157 180.886 241.447L180.731 247.43C180.719 247.914 180.774 248.397 180.895 248.866L182.405 254.706L184.125 259.377C184.337 259.955 185.077 260.119 185.513 259.684C186.122 259.078 186.383 258.205 186.205 257.364L185.66 254.789L186.039 255.349C186.4 255.881 187.223 255.717 187.352 255.088C187.471 254.512 187.351 253.913 187.022 253.427L185.744 251.541L185.38 247.63L185.962 243.093L187.889 240.543L188.479 242.994C188.875 244.635 190.323 245.807 192.011 245.85C192.656 245.867 193.123 245.239 192.921 244.626L191.609 240.638L191.695 237.293C191.737 235.648 191.389 234.016 190.678 232.532L189.552 230.182Z" fill="#FF0000"/>
<path d="M401.544 336.427C392.188 337.059 385.115 345.155 385.746 354.512C386.378 363.869 394.474 370.942 403.831 370.311C413.187 369.68 420.26 361.583 419.629 352.226C418.997 342.87 410.901 335.796 401.544 336.427Z" fill="#CC4343"/>
<path d="M292.497 291.979L292.117 289.015C292.073 288.675 291.936 288.336 291.719 288.037L291.461 287.68C277.783 268.766 258.922 253.813 237.809 245.143L233.104 243.211L232.841 243.428C225.632 249.338 224.396 260.204 229.852 269.712L230.235 270.379L249.05 280.909L265.702 293.041C271.654 297.377 278.605 299.714 285.312 299.634C289.838 299.951 293.076 296.501 292.497 291.979Z" fill="#FF0000"/>
<path d="M327.145 359.176L327.55 359.28C330.666 360.083 332.954 357.505 332.059 354.199L291.928 288.432C290.455 286.018 287.566 285.084 285.757 286.436L280.443 290.41C278.606 291.783 279.19 295.085 281.534 296.586C283.497 297.843 285.001 299.875 285.625 302.112L287.487 308.786C288.726 313.227 291.198 317.437 294.55 320.814L312.278 338.675C314.512 340.926 316.54 343.4 318.317 346.044L327.145 359.176Z" fill="#FF0000"/>
<path d="M332.261 353.968L331.832 353.962C329.038 353.923 326.903 355.713 326.396 358.52L326.334 358.867L327.315 362.884C328.019 365.765 329.559 368.548 331.697 370.801L347.395 358.962L355.812 352.615C356.348 352.211 355.93 351.159 355.184 351.035C353.56 350.765 351.987 350.949 350.642 351.555C346.322 353.501 341.408 354.401 336.281 354.158L332.261 353.968Z" fill="#FF0000"/>
<path d="M198.083 300.966L201.055 300.655C201.396 300.619 201.738 300.489 202.042 300.28L202.404 300.03C221.629 286.792 237.014 268.282 246.169 247.375L248.209 242.716L247.999 242.448C242.257 235.104 231.422 233.618 221.791 238.852L221.115 239.22L210.153 257.786L197.641 274.154C193.168 280.005 190.671 286.899 190.596 293.607C190.175 298.124 193.549 301.441 198.083 300.966Z" fill="#FF0000"/>
<path d="M128.847 253.381L128.439 253.475C125.304 254.201 124.464 257.543 126.783 260.064L192.731 299.897C195.151 301.359 198.146 300.855 199.127 298.82L202.008 292.843C203.004 290.777 200.963 288.117 198.19 287.867C195.869 287.657 193.597 286.548 192.011 284.852L187.28 279.789C184.133 276.421 179.997 273.827 175.464 272.377L151.496 264.71C148.474 263.744 145.534 262.484 142.737 260.959L128.847 253.381Z" fill="#FF0000"/>
<path d="M126.711 260.361L127.094 260.169C129.591 258.915 130.659 256.342 129.813 253.617L129.709 253.281L126.985 250.17C125.031 247.938 122.381 246.18 119.445 245.168L110.98 262.913L106.441 272.428C106.152 273.034 107.008 273.774 107.727 273.54C109.291 273.03 110.603 272.142 111.516 270.983C114.451 267.263 118.396 264.198 123.056 262.048L126.711 260.361Z" fill="#FF0000"/>
</g>
<defs>
<clipPath id="clip0_61_10678">
<rect width="500" height="500" fill="white"/>
</clipPath>
</defs>
</svg>
