<svg width="577" height="84" viewBox="0 0 577 84" fill="none" xmlns="http://www.w3.org/2000/svg">
<rect x="6" width="11" height="82" fill="#AFC8E7"/>
<rect x="25" width="11" height="82" fill="#AFC8E7"/>
<rect x="44" y="50" width="11" height="32" fill="#AFC8E7"/>
<rect x="63" y="50" width="11" height="32" fill="#AFC8E7"/>
<rect x="82" y="50" width="11" height="32" fill="#AFC8E7"/>
<rect x="101" width="11" height="82" fill="#AFC8E7"/>
<rect x="120" y="69" width="11" height="13" fill="#AFC8E7"/>
<rect x="139" y="50" width="11" height="32" fill="#AFC8E7"/>
<rect x="158" y="19" width="11" height="63" fill="#AFC8E7"/>
<rect x="177" width="11" height="82" fill="#AFC8E7"/>
<rect x="196" y="19" width="11" height="63" fill="#AFC8E7"/>
<rect x="215" y="50" width="11" height="32" fill="#AFC8E7"/>
<rect x="234" y="50" width="11" height="32" fill="#AFC8E7"/>
<rect x="253" y="50" width="11" height="32" fill="#AFC8E7"/>
<rect x="272" y="69" width="11" height="13" fill="#AFC8E7"/>
<rect x="291" y="50" width="11" height="32" fill="#AFC8E7"/>
<rect x="310" y="50" width="11" height="32" fill="#AFC8E7"/>
<rect x="329" y="50" width="11" height="32" fill="#AFC8E7"/>
<rect x="348" width="11" height="82" fill="#AFC8E7"/>
<rect x="367" width="11" height="82" fill="#AFC8E7"/>
<rect x="386" y="38" width="11" height="44" fill="#AFC8E7"/>
<rect x="405" y="13" width="11" height="69" fill="#AFC8E7"/>
<rect x="424" y="57" width="11" height="25" fill="#AFC8E7"/>
<rect x="443" y="13" width="11" height="69" fill="#AFC8E7"/>
<rect x="462" y="63" width="11" height="19" fill="#AFC8E7"/>
<rect x="481" y="38" width="11" height="44" fill="#AFC8E7"/>
<rect x="500" y="38" width="11" height="44" fill="#AFC8E7"/>
<rect x="519" y="25" width="11" height="57" fill="#AFC8E7"/>
<rect x="538" y="25" width="11" height="57" fill="#AFC8E7"/>
<rect x="557" y="13" width="11" height="69" fill="#AFC8E7"/>
<line opacity="0.5" x1="577" y1="44" y2="44" stroke="#AFC8E7" stroke-width="2" stroke-dasharray="2 2"/>
<line opacity="0.5" x1="577" y1="83" y2="83" stroke="#2A2E76" stroke-width="2"/>
</svg>
