<svg width="92" height="20" viewBox="0 0 92 20" fill="none" xmlns="http://www.w3.org/2000/svg">
<rect x="2" y="3" width="2" height="17" fill="#AFC8E7"/>
<rect x="5" width="2" height="20" fill="#AFC8E7"/>
<rect x="8" y="13" width="2" height="7" fill="#AFC8E7"/>
<rect x="11" y="12" width="2" height="8" fill="#AFC8E7"/>
<rect x="14" y="9" width="2" height="11" fill="#AFC8E7"/>
<rect x="17" y="13" width="2" height="7" fill="#AFC8E7"/>
<rect x="20" y="12" width="2" height="8" fill="#AFC8E7"/>
<rect x="23" y="2" width="2" height="18" fill="#AFC8E7"/>
<rect x="26" y="8" width="2" height="12" fill="#AFC8E7"/>
<rect x="29" y="10" width="2" height="10" fill="#AFC8E7"/>
<rect x="32" y="12" width="2" height="8" fill="#AFC8E7"/>
<rect x="35" y="11" width="2" height="9" fill="#AFC8E7"/>
<rect x="38" y="11" width="2" height="9" fill="#AFC8E7"/>
<rect x="41" y="11" width="2" height="9" fill="#AFC8E7"/>
<rect x="44" y="18" width="2" height="2" fill="#AFC8E7"/>
<rect x="47" y="3" width="2" height="17" fill="#AFC8E7"/>
<rect x="50" y="11" width="2" height="9" fill="#AFC8E7"/>
<rect x="53" y="11" width="2" height="9" fill="#AFC8E7"/>
<rect x="56" y="10" width="2" height="10" fill="#AFC8E7"/>
<rect x="59" y="10" width="2" height="10" fill="#AFC8E7"/>
<rect x="62" y="11" width="2" height="9" fill="#AFC8E7"/>
<rect x="65" y="3" width="2" height="17" fill="#AFC8E7"/>
<rect x="68" y="4" width="2" height="16" fill="#AFC8E7"/>
<rect x="71" y="2" width="2" height="18" fill="#AFC8E7"/>
<rect x="74" y="3" width="2" height="17" fill="#AFC8E7"/>
<rect x="77" y="3" width="2" height="17" fill="#AFC8E7"/>
<rect x="80" y="3" width="2" height="17" fill="#AFC8E7"/>
<rect x="83" y="6" width="2" height="14" fill="#AFC8E7"/>
<rect x="86" y="3" width="2" height="17" fill="#AFC8E7"/>
<rect x="89" y="9" width="2" height="11" fill="#AFC8E7"/>
<line x1="92" y1="10.5" x2="4.37114e-08" y2="10.5" stroke="#AFC8E7" stroke-dasharray="2 2"/>
</svg>
