<svg width="24" height="24" viewBox="0 0 24 24" fill="none" xmlns="http://www.w3.org/2000/svg">
<g clip-path="url(#clip0_12_658)">
<mask id="mask0_12_658" style="mask-type:luminance" maskUnits="userSpaceOnUse" x="0" y="0" width="24" height="24">
<path d="M24 0H0V23.4833H24V0Z" fill="white"/>
</mask>
<g mask="url(#mask0_12_658)">
<path d="M21.8171 16.0043C20.9645 14.0797 18.7686 10.2821 14.9193 10.8504C11.7159 11.3283 8.2541 16.5856 6.10986 20.4607M1.44678 13.3822C1.44678 13.3822 6.87197 6.66526 22.2304 8.70617M4.26271 4.46935C4.84398 4.46935 6.32945 4.55977 8.9387 5.27022C12.6976 6.30359 17.0765 5.67065 18.0582 2.98389" stroke="#283593" stroke-miterlimit="10"/>
<path d="M11.7417 1.55005C13.8214 5.17976 17.4898 13.3563 14.493 21.9591" stroke="#FF1744" stroke-miterlimit="10"/>
<path d="M11.9999 22.2691C17.9425 22.2691 22.7599 17.5558 22.7599 11.7417C22.7599 5.92753 17.9425 1.21423 11.9999 1.21423C6.05739 1.21423 1.23999 5.92753 1.23999 11.7417C1.23999 17.5558 6.05739 22.2691 11.9999 22.2691Z" stroke="#283593" stroke-miterlimit="10"/>
</g>
</g>
<defs>
<clipPath id="clip0_12_658">
<rect width="24" height="23.4833" fill="white"/>
</clipPath>
</defs>
</svg>
