<svg width="320" height="320" viewBox="0 0 320 320" fill="none" xmlns="http://www.w3.org/2000/svg">
<path d="M213.76 60.7998L210.303 70.1425L200.96 73.5998L210.303 77.0571L213.76 86.3998L217.217 77.0571L226.56 73.5998L217.217 70.1425L213.76 60.7998Z" fill="white" fill-opacity="0.2"/>
<path d="M210.25 221.568L212.746 226.999L210.25 232.43L215.68 229.933L221.11 232.43L218.614 226.999L221.11 221.568L215.68 224.066L210.25 221.568Z" fill="white" fill-opacity="0.18"/>
<path d="M82.56 127.159L80.4858 132.765L74.88 134.839L80.4858 136.913L82.56 142.519L84.6342 136.913L90.24 134.839L84.6342 132.765L82.56 127.159Z" fill="white" fill-opacity="0.15"/>
<mask id="path-4-outside-1_976_1393" maskUnits="userSpaceOnUse" x="47.9147" y="76.7881" width="207" height="165" fill="black">
<rect fill="white" x="47.9147" y="76.7881" width="207" height="165"/>
<path fill-rule="evenodd" clip-rule="evenodd" d="M137.852 111.869C138.722 111.347 139.603 110.844 140.496 110.362L141.829 104.817L134.944 105.74L133.101 90.0646C132.461 84.6201 136.752 79.8086 142.266 79.7881C147.17 79.7702 151.197 83.5853 151.417 88.4582L152.088 103.271L153.216 105.089C156.437 104.125 159.728 103.4 163.054 102.925C164.262 102.753 165.446 102.828 166.555 103.111C166.723 103.138 166.89 103.17 167.057 103.205L171.241 104.086L183.018 106.102L195.53 110.215L195.678 110.607L196.012 110.719L198.059 117.042C199.014 119.994 199.619 123.049 199.86 126.144L200.634 136.083L202.687 147.147C202.834 147.379 202.937 147.638 202.99 147.911L204.173 153.975C204.208 154.156 204.228 154.341 204.233 154.526L204.332 158.355C204.34 158.665 204.305 158.974 204.227 159.274L203.261 163.012L202.16 166.001C202.024 166.371 201.551 166.476 201.272 166.198C200.882 165.81 200.715 165.251 200.829 164.713L201.178 163.065L200.935 163.424C200.704 163.764 200.177 163.659 200.095 163.257C200.018 162.888 200.095 162.505 200.306 162.193L201.124 160.986L201.357 158.483L200.984 155.58L199.751 153.948L199.373 155.516C199.12 156.567 198.193 157.317 197.113 157.344C196.7 157.355 196.401 156.953 196.53 156.561L197.37 154.008L197.315 151.868C197.288 150.815 197.511 149.77 197.966 148.821L198.687 147.317L199.179 146.798C199.285 146.687 199.4 146.589 199.521 146.504L195.249 133.955C194.835 132.74 194.237 131.594 193.476 130.559C190.559 126.592 189.029 121.801 189.083 116.909L187.522 116.939C184.596 116.995 181.672 116.781 178.787 116.302L173.56 115.433L173.833 119.328C173.927 120.673 173.816 122.026 173.502 123.34L171.875 130.168L172.958 145.073L178.313 153.007L178.486 153.101L185.502 164.983L193.51 175.459C195.13 177.578 196.345 179.911 197.103 182.316L197.113 182.305L200.141 179.065C202.155 176.909 204.802 175.249 207.703 174.321L223.043 169.414C224.977 168.796 226.858 167.99 228.648 167.014L236.858 162.535C236.876 162.462 236.897 162.388 236.92 162.315L236.986 162.1L238.73 160.109C239.98 158.68 241.676 157.555 243.555 156.907L248.973 168.264L251.878 174.354C252.063 174.742 251.515 175.215 251.055 175.065C250.054 174.739 249.214 174.171 248.63 173.429C246.751 171.048 244.227 169.087 241.244 167.711L238.905 166.631L238.708 166.532L196.652 191.934C196.162 192.23 195.635 192.4 195.124 192.453C194.547 192.627 193.907 192.69 193.227 192.618L191.325 192.419C191.107 192.396 190.888 192.313 190.693 192.179L190.461 192.019C183.146 186.982 176.7 180.753 171.444 173.717L160.608 179.782L149.951 187.546C146.29 190.213 142.039 191.698 137.904 191.765C137.595 192.26 137.355 192.796 137.2 193.351L136.008 197.623C135.215 200.465 133.633 203.159 131.488 205.321L120.142 216.752C118.712 218.192 117.414 219.776 116.277 221.468L111.06 229.229C111.077 229.302 111.093 229.377 111.107 229.453L111.146 229.675L110.518 232.246C110.068 234.09 109.082 235.871 107.714 237.313L97.6672 229.736L92.2803 225.674C91.9373 225.415 92.2048 224.742 92.6823 224.662C93.7216 224.49 94.7283 224.607 95.5891 224.995C98.3539 226.241 101.499 226.817 104.78 226.661L107.353 226.54L107.574 226.537L133.123 184.667C133.167 184.554 133.226 184.445 133.3 184.344L133.465 184.115C140.371 174.566 149.341 166.594 159.455 160.93L145.345 138.367L139.464 135.31C138.831 134.982 138.227 134.603 137.657 134.177L133.013 130.711L131.742 133.61L128.954 138.236C127.445 140.741 125.708 143.103 123.765 145.291L121.261 148.11C121.268 148.138 121.274 148.166 121.281 148.194L120.614 150.497C119.058 155.879 115.569 160.485 110.814 163.436C109.722 164.114 108.741 164.954 107.904 165.929L100.487 174.567L100.767 175.176L100.961 176.833C101.083 177.878 100.955 178.939 100.589 179.926L99.8418 181.934L99.8092 184.62C99.8041 185.033 99.3913 185.317 99.0041 185.173C97.991 184.796 97.3574 183.786 97.4585 182.71L97.6095 181.103L95.9135 182.248L94.6194 184.874L94.0287 187.317L94.4108 188.724C94.5094 189.087 94.4575 189.475 94.2662 189.798C94.0575 190.152 93.525 190.081 93.4175 189.684L93.3042 189.267L93.0994 190.938C93.0322 191.484 92.6937 191.959 92.199 192.2C91.8451 192.372 91.431 192.12 91.422 191.726L91.3503 188.54L91.6479 184.692C91.6723 184.383 91.7388 184.079 91.847 183.788L93.182 180.198C93.2466 180.024 93.3254 179.856 93.4182 179.696L96.503 174.343C96.6875 174.023 96.9474 173.755 97.2586 173.562L102.114 165.9L106.531 156.963C107.907 154.179 109.605 151.57 111.59 149.186L113.5 146.893L118.451 134.827L124.568 124.564L126.616 120.81C127.469 119.246 128.649 117.928 130.046 116.919C130.559 116.377 131.158 115.891 131.842 115.48L137.852 111.869ZM73.1224 226.888C73.5264 220.899 68.9997 215.717 63.0116 215.314C57.0235 214.91 51.8416 219.437 51.4375 225.425C51.0335 231.413 55.5602 236.595 61.5484 236.999C67.5365 237.403 72.7183 232.876 73.1224 226.888Z"/>
</mask>
<path fill-rule="evenodd" clip-rule="evenodd" d="M137.852 111.869C138.722 111.347 139.603 110.844 140.496 110.362L141.829 104.817L134.944 105.74L133.101 90.0646C132.461 84.6201 136.752 79.8086 142.266 79.7881C147.17 79.7702 151.197 83.5853 151.417 88.4582L152.088 103.271L153.216 105.089C156.437 104.125 159.728 103.4 163.054 102.925C164.262 102.753 165.446 102.828 166.555 103.111C166.723 103.138 166.89 103.17 167.057 103.205L171.241 104.086L183.018 106.102L195.53 110.215L195.678 110.607L196.012 110.719L198.059 117.042C199.014 119.994 199.619 123.049 199.86 126.144L200.634 136.083L202.687 147.147C202.834 147.379 202.937 147.638 202.99 147.911L204.173 153.975C204.208 154.156 204.228 154.341 204.233 154.526L204.332 158.355C204.34 158.665 204.305 158.974 204.227 159.274L203.261 163.012L202.16 166.001C202.024 166.371 201.551 166.476 201.272 166.198C200.882 165.81 200.715 165.251 200.829 164.713L201.178 163.065L200.935 163.424C200.704 163.764 200.177 163.659 200.095 163.257C200.018 162.888 200.095 162.505 200.306 162.193L201.124 160.986L201.357 158.483L200.984 155.58L199.751 153.948L199.373 155.516C199.12 156.567 198.193 157.317 197.113 157.344C196.7 157.355 196.401 156.953 196.53 156.561L197.37 154.008L197.315 151.868C197.288 150.815 197.511 149.77 197.966 148.821L198.687 147.317L199.179 146.798C199.285 146.687 199.4 146.589 199.521 146.504L195.249 133.955C194.835 132.74 194.237 131.594 193.476 130.559C190.559 126.592 189.029 121.801 189.083 116.909L187.522 116.939C184.596 116.995 181.672 116.781 178.787 116.302L173.56 115.433L173.833 119.328C173.927 120.673 173.816 122.026 173.502 123.34L171.875 130.168L172.958 145.073L178.313 153.007L178.486 153.101L185.502 164.983L193.51 175.459C195.13 177.578 196.345 179.911 197.103 182.316L197.113 182.305L200.141 179.065C202.155 176.909 204.802 175.249 207.703 174.321L223.043 169.414C224.977 168.796 226.858 167.99 228.648 167.014L236.858 162.535C236.876 162.462 236.897 162.388 236.92 162.315L236.986 162.1L238.73 160.109C239.98 158.68 241.676 157.555 243.555 156.907L248.973 168.264L251.878 174.354C252.063 174.742 251.515 175.215 251.055 175.065C250.054 174.739 249.214 174.171 248.63 173.429C246.751 171.048 244.227 169.087 241.244 167.711L238.905 166.631L238.708 166.532L196.652 191.934C196.162 192.23 195.635 192.4 195.124 192.453C194.547 192.627 193.907 192.69 193.227 192.618L191.325 192.419C191.107 192.396 190.888 192.313 190.693 192.179L190.461 192.019C183.146 186.982 176.7 180.753 171.444 173.717L160.608 179.782L149.951 187.546C146.29 190.213 142.039 191.698 137.904 191.765C137.595 192.26 137.355 192.796 137.2 193.351L136.008 197.623C135.215 200.465 133.633 203.159 131.488 205.321L120.142 216.752C118.712 218.192 117.414 219.776 116.277 221.468L111.06 229.229C111.077 229.302 111.093 229.377 111.107 229.453L111.146 229.675L110.518 232.246C110.068 234.09 109.082 235.871 107.714 237.313L97.6672 229.736L92.2803 225.674C91.9373 225.415 92.2048 224.742 92.6823 224.662C93.7216 224.49 94.7283 224.607 95.5891 224.995C98.3539 226.241 101.499 226.817 104.78 226.661L107.353 226.54L107.574 226.537L133.123 184.667C133.167 184.554 133.226 184.445 133.3 184.344L133.465 184.115C140.371 174.566 149.341 166.594 159.455 160.93L145.345 138.367L139.464 135.31C138.831 134.982 138.227 134.603 137.657 134.177L133.013 130.711L131.742 133.61L128.954 138.236C127.445 140.741 125.708 143.103 123.765 145.291L121.261 148.11C121.268 148.138 121.274 148.166 121.281 148.194L120.614 150.497C119.058 155.879 115.569 160.485 110.814 163.436C109.722 164.114 108.741 164.954 107.904 165.929L100.487 174.567L100.767 175.176L100.961 176.833C101.083 177.878 100.955 178.939 100.589 179.926L99.8418 181.934L99.8092 184.62C99.8041 185.033 99.3913 185.317 99.0041 185.173C97.991 184.796 97.3574 183.786 97.4585 182.71L97.6095 181.103L95.9135 182.248L94.6194 184.874L94.0287 187.317L94.4108 188.724C94.5094 189.087 94.4575 189.475 94.2662 189.798C94.0575 190.152 93.525 190.081 93.4175 189.684L93.3042 189.267L93.0994 190.938C93.0322 191.484 92.6937 191.959 92.199 192.2C91.8451 192.372 91.431 192.12 91.422 191.726L91.3503 188.54L91.6479 184.692C91.6723 184.383 91.7388 184.079 91.847 183.788L93.182 180.198C93.2466 180.024 93.3254 179.856 93.4182 179.696L96.503 174.343C96.6875 174.023 96.9474 173.755 97.2586 173.562L102.114 165.9L106.531 156.963C107.907 154.179 109.605 151.57 111.59 149.186L113.5 146.893L118.451 134.827L124.568 124.564L126.616 120.81C127.469 119.246 128.649 117.928 130.046 116.919C130.559 116.377 131.158 115.891 131.842 115.48L137.852 111.869ZM73.1224 226.888C73.5264 220.899 68.9997 215.717 63.0116 215.314C57.0235 214.91 51.8416 219.437 51.4375 225.425C51.0335 231.413 55.5602 236.595 61.5484 236.999C67.5365 237.403 72.7183 232.876 73.1224 226.888Z" fill="#FF0000"/>
<path d="M140.496 110.362L143.218 111.016L142.926 112.231L141.827 112.825L140.496 110.362ZM137.852 111.869L139.294 114.269L139.294 114.27L137.852 111.869ZM141.829 104.817L141.457 102.042L145.507 101.5L144.551 105.472L141.829 104.817ZM134.944 105.74L135.316 108.515L132.495 108.893L132.163 106.066L134.944 105.74ZM133.101 90.0646L135.882 89.7374L135.882 89.7377L133.101 90.0646ZM142.266 79.7881L142.256 76.9882L142.256 76.9882L142.266 79.7881ZM151.417 88.4582L148.62 88.5848L148.62 88.5846L151.417 88.4582ZM152.088 103.271L149.709 104.748L149.323 104.127L149.29 103.398L152.088 103.271ZM153.216 105.089L154.02 107.771L151.967 108.386L150.837 106.566L153.216 105.089ZM163.054 102.925L163.449 105.697L163.449 105.697L163.054 102.925ZM166.555 103.111L166.098 105.873L165.98 105.854L165.864 105.824L166.555 103.111ZM167.057 103.205L166.481 105.945L166.48 105.945L167.057 103.205ZM171.241 104.086L170.768 106.846L170.716 106.837L170.664 106.826L171.241 104.086ZM183.018 106.102L183.49 103.343L183.695 103.378L183.892 103.442L183.018 106.102ZM195.53 110.215L196.404 107.555L197.672 107.972L198.147 109.22L195.53 110.215ZM195.678 110.607L194.787 113.261L193.532 112.839L193.061 111.602L195.678 110.607ZM196.012 110.719L196.903 108.064L198.241 108.514L198.675 109.856L196.012 110.719ZM198.059 117.042L200.723 116.18L200.723 116.18L198.059 117.042ZM199.86 126.144L202.651 125.926L202.651 125.926L199.86 126.144ZM200.634 136.083L197.881 136.594L197.854 136.448L197.843 136.301L200.634 136.083ZM202.687 147.147L200.319 148.64L200.032 148.186L199.934 147.658L202.687 147.147ZM202.99 147.911L200.242 148.447L200.242 148.446L202.99 147.911ZM204.173 153.975L206.921 153.439L206.922 153.442L204.173 153.975ZM204.233 154.526L201.434 154.599L201.434 154.594L204.233 154.526ZM204.332 158.355L207.131 158.283L207.131 158.286L204.332 158.355ZM204.227 159.274L206.938 159.974L206.938 159.975L204.227 159.274ZM203.261 163.012L205.972 163.713L205.937 163.848L205.888 163.98L203.261 163.012ZM202.16 166.001L199.531 165.037L199.532 165.034L202.16 166.001ZM201.272 166.198L203.247 164.213L203.249 164.216L201.272 166.198ZM200.829 164.713L198.089 164.133V164.133L200.829 164.713ZM201.178 163.065L198.859 161.496L203.917 163.645L201.178 163.065ZM200.935 163.424L203.254 164.993L203.252 164.996L200.935 163.424ZM200.095 163.257L202.837 162.69L202.838 162.694L200.095 163.257ZM200.306 162.193L197.987 160.624L197.988 160.623L200.306 162.193ZM201.124 160.986L203.912 161.246L203.845 161.962L203.442 162.557L201.124 160.986ZM201.357 158.483L204.134 158.127L204.173 158.434L204.145 158.743L201.357 158.483ZM200.984 155.58L203.218 153.892L203.667 154.485L203.761 155.223L200.984 155.58ZM199.751 153.948L197.029 153.292L198.415 147.535L201.985 152.26L199.751 153.948ZM199.373 155.516L202.096 156.172L202.095 156.173L199.373 155.516ZM197.113 157.344L197.039 154.545L197.042 154.545L197.113 157.344ZM196.53 156.561L199.19 157.436L199.19 157.437L196.53 156.561ZM197.37 154.008L200.169 153.937L200.182 154.422L200.03 154.884L197.37 154.008ZM197.315 151.868L194.516 151.94L194.516 151.939L197.315 151.868ZM197.966 148.821L195.441 147.611L195.441 147.611L197.966 148.821ZM198.687 147.317L196.162 146.107L196.353 145.708L196.657 145.388L198.687 147.317ZM199.179 146.798L197.15 144.869L197.151 144.868L199.179 146.798ZM199.521 146.504L202.172 145.602L202.851 147.596L201.123 148.801L199.521 146.504ZM195.249 133.955L192.598 134.858L192.598 134.857L195.249 133.955ZM193.476 130.559L191.22 132.218L191.22 132.218L193.476 130.559ZM189.083 116.909L189.03 114.11L191.915 114.055L191.883 116.94L189.083 116.909ZM187.522 116.939L187.575 119.738H187.575L187.522 116.939ZM178.787 116.302L178.328 119.064L178.328 119.064L178.787 116.302ZM173.56 115.433L170.767 115.629L170.519 112.089L174.02 112.671L173.56 115.433ZM173.833 119.328L176.626 119.132L176.626 119.133L173.833 119.328ZM173.502 123.34L170.778 122.691L170.779 122.69L173.502 123.34ZM171.875 130.168L169.083 130.371L169.051 129.94L169.151 129.519L171.875 130.168ZM172.958 145.073L170.637 146.64L170.22 146.021L170.165 145.276L172.958 145.073ZM178.313 153.007L176.974 155.466L176.375 155.139L175.992 154.573L178.313 153.007ZM178.486 153.101L179.825 150.642L180.504 151.011L180.897 151.677L178.486 153.101ZM185.502 164.983L183.278 166.684L183.176 166.551L183.091 166.407L185.502 164.983ZM193.51 175.459L191.285 177.159L191.285 177.159L193.51 175.459ZM197.103 182.316L199.146 184.23L195.873 187.723L194.433 183.158L197.103 182.316ZM197.113 182.305L199.159 184.217L199.156 184.22L197.113 182.305ZM200.141 179.065L202.187 180.977L202.187 180.977L200.141 179.065ZM207.703 174.321L208.556 176.988L208.556 176.988L207.703 174.321ZM223.043 169.414L222.189 166.748L222.19 166.747L223.043 169.414ZM228.648 167.014L229.989 169.472L229.989 169.472L228.648 167.014ZM236.858 162.535L239.572 163.221L239.272 164.407L238.199 164.993L236.858 162.535ZM236.92 162.315L239.595 163.143L239.594 163.145L236.92 162.315ZM236.986 162.1L234.312 161.272L234.488 160.703L234.88 160.255L236.986 162.1ZM238.73 160.109L240.836 161.953L240.836 161.953L238.73 160.109ZM243.555 156.907L242.643 154.26L245.006 153.446L246.082 155.702L243.555 156.907ZM248.973 168.264L251.5 167.059H251.5L248.973 168.264ZM251.878 174.354L254.405 173.148L254.405 173.148L251.878 174.354ZM251.055 175.065L250.188 177.728L250.187 177.728L251.055 175.065ZM248.63 173.429L250.828 171.695L250.829 171.696L248.63 173.429ZM241.244 167.711L240.071 170.253L240.071 170.253L241.244 167.711ZM238.905 166.631L237.732 169.173L237.691 169.154L237.65 169.134L238.905 166.631ZM238.708 166.532L237.26 164.135L238.582 163.337L239.963 164.029L238.708 166.532ZM196.652 191.934L195.204 189.538L195.204 189.537L196.652 191.934ZM195.124 192.453L194.315 189.773L194.57 189.696L194.835 189.668L195.124 192.453ZM193.227 192.618L193.518 189.833L193.519 189.834L193.227 192.618ZM191.325 192.419L191.033 195.204L191.031 195.204L191.325 192.419ZM190.693 192.179L189.107 194.487L189.102 194.483L190.693 192.179ZM190.461 192.019L192.049 189.713L192.053 189.715L190.461 192.019ZM171.444 173.717L170.076 171.274L172.218 170.075L173.687 172.041L171.444 173.717ZM160.608 179.782L158.959 177.519L159.095 177.42L159.241 177.338L160.608 179.782ZM149.951 187.546L151.6 189.809L151.599 189.809L149.951 187.546ZM137.904 191.765L135.529 190.282L136.336 188.99L137.859 188.965L137.904 191.765ZM137.2 193.351L139.897 194.104L139.897 194.104L137.2 193.351ZM136.008 197.623L133.311 196.87V196.87L136.008 197.623ZM131.488 205.321L129.501 203.348L129.501 203.348L131.488 205.321ZM120.142 216.752L118.155 214.779L118.155 214.779L120.142 216.752ZM116.277 221.468L118.601 223.03L118.601 223.03L116.277 221.468ZM111.06 229.229L108.335 229.873L108.054 228.682L108.736 227.667L111.06 229.229ZM111.107 229.453L113.862 228.955L113.863 228.96L111.107 229.453ZM111.146 229.675L113.903 229.183L114.007 229.765L113.866 230.339L111.146 229.675ZM110.518 232.246L113.238 232.91L113.238 232.911L110.518 232.246ZM107.714 237.313L109.745 239.24L108.024 241.054L106.028 239.548L107.714 237.313ZM97.6672 229.736L99.353 227.5L99.3532 227.5L97.6672 229.736ZM92.2803 225.674L93.9657 223.438L93.9661 223.438L92.2803 225.674ZM92.6823 224.662L93.1414 227.425L93.1414 227.425L92.6823 224.662ZM95.5891 224.995L94.4391 227.548L94.4389 227.548L95.5891 224.995ZM104.78 226.661L104.648 223.864L104.648 223.864L104.78 226.661ZM107.353 226.54L107.221 223.743L107.267 223.741L107.314 223.74L107.353 226.54ZM107.574 226.537L109.964 227.995L109.159 229.315L107.613 229.336L107.574 226.537ZM133.123 184.667L135.733 185.68L135.643 185.912L135.513 186.125L133.123 184.667ZM133.3 184.344L135.569 185.984L135.566 185.988L133.3 184.344ZM133.465 184.115L131.196 182.475L131.196 182.474L133.465 184.115ZM159.455 160.93L161.829 159.445L163.387 161.937L160.823 163.372L159.455 160.93ZM145.345 138.367L146.637 135.882L147.314 136.235L147.719 136.882L145.345 138.367ZM139.464 135.31L140.754 132.825L140.755 132.826L139.464 135.31ZM137.657 134.177L135.982 136.421L135.982 136.421L137.657 134.177ZM133.013 130.711L130.449 129.587L131.864 126.36L134.688 128.467L133.013 130.711ZM131.742 133.61L134.306 134.735L134.233 134.9L134.14 135.055L131.742 133.61ZM128.954 138.236L131.353 139.681L131.352 139.681L128.954 138.236ZM123.765 145.291L125.858 147.15L125.858 147.15L123.765 145.291ZM121.261 148.11L118.542 148.781L118.19 147.352L119.167 146.251L121.261 148.11ZM121.281 148.194L124.01 147.567L124.172 148.274L123.97 148.972L121.281 148.194ZM120.614 150.497L117.925 149.719L117.925 149.719L120.614 150.497ZM110.814 163.436L109.337 161.057L109.338 161.057L110.814 163.436ZM107.904 165.929L105.78 164.105L105.78 164.105L107.904 165.929ZM100.487 174.567L97.942 175.734L97.1942 174.104L98.3628 172.743L100.487 174.567ZM100.767 175.176L103.312 174.009L103.496 174.411L103.548 174.851L100.767 175.176ZM100.961 176.833L103.742 176.507L103.742 176.508L100.961 176.833ZM100.589 179.926L103.214 180.901L103.213 180.903L100.589 179.926ZM99.8418 181.934L97.042 181.9L97.0479 181.413L97.2177 180.957L99.8418 181.934ZM99.8092 184.62L102.609 184.654L102.609 184.655L99.8092 184.62ZM99.0041 185.173L98.0281 187.797L98.0277 187.797L99.0041 185.173ZM97.4585 182.71L100.246 182.972V182.972L97.4585 182.71ZM97.6095 181.103L96.0429 178.783L100.951 175.469L100.397 181.365L97.6095 181.103ZM95.9135 182.248L93.4021 181.01L93.7307 180.344L94.3469 179.928L95.9135 182.248ZM94.6194 184.874L91.8978 184.216L91.9708 183.914L92.108 183.636L94.6194 184.874ZM94.0287 187.317L91.3266 188.051L91.1383 187.358L91.3071 186.659L94.0287 187.317ZM94.4108 188.724L97.1129 187.99L97.1129 187.99L94.4108 188.724ZM94.2662 189.798L91.8541 188.377L91.8556 188.374L94.2662 189.798ZM93.4175 189.684L96.1197 188.95L96.1201 188.952L93.4175 189.684ZM93.3042 189.267L90.525 188.926L96.0065 188.533L93.3042 189.267ZM93.0994 190.938L95.8787 191.279L95.8785 191.28L93.0994 190.938ZM92.199 192.2L90.9742 189.682L90.9742 189.682L92.199 192.2ZM91.422 191.726L88.6227 191.789L88.6227 191.788L91.422 191.726ZM91.3503 188.54L88.551 188.603L88.5479 188.464L88.5587 188.324L91.3503 188.54ZM91.6479 184.692L88.8563 184.476L88.8566 184.472L91.6479 184.692ZM91.847 183.788L94.4714 184.764L94.471 184.765L91.847 183.788ZM93.182 180.198L90.5576 179.222L90.5583 179.22L93.182 180.198ZM93.4182 179.696L95.8442 181.094L95.8403 181.101L93.4182 179.696ZM96.503 174.343L98.9291 175.741L98.929 175.741L96.503 174.343ZM97.2586 173.562L99.6237 175.06L99.2809 175.601L98.7372 175.939L97.2586 173.562ZM102.114 165.9L104.624 167.14L104.558 167.273L104.479 167.399L102.114 165.9ZM106.531 156.963L104.021 155.722L104.021 155.722L106.531 156.963ZM111.59 149.186L109.439 147.394L109.439 147.394L111.59 149.186ZM113.5 146.893L116.09 147.956L115.927 148.354L115.651 148.685L113.5 146.893ZM118.451 134.827L115.861 133.764L115.94 133.572L116.046 133.394L118.451 134.827ZM124.568 124.564L127.026 125.905L127 125.951L126.973 125.997L124.568 124.564ZM126.616 120.81L129.074 122.151L129.074 122.151L126.616 120.81ZM130.046 116.919L132.078 118.845L131.898 119.035L131.685 119.189L130.046 116.919ZM131.842 115.48L130.4 113.08L130.4 113.08L131.842 115.48ZM73.1224 226.888L70.3287 226.699L73.1224 226.888ZM51.4375 225.425L48.6439 225.236L51.4375 225.425ZM61.5484 236.999L61.7368 234.205H61.7368L61.5484 236.999ZM141.827 112.825C140.972 113.287 140.127 113.769 139.294 114.269L136.409 109.47C137.316 108.925 138.235 108.401 139.165 107.898L141.827 112.825ZM144.551 105.472L143.218 111.016L137.773 109.707L139.107 104.163L144.551 105.472ZM134.572 102.964L141.457 102.042L142.201 107.592L135.316 108.515L134.572 102.964ZM135.882 89.7377L137.725 105.413L132.163 106.066L130.32 90.3915L135.882 89.7377ZM142.277 82.5881C138.416 82.6025 135.439 85.9718 135.882 89.7374L130.321 90.3918C129.482 83.2685 135.088 77.0148 142.256 76.9882L142.277 82.5881ZM148.62 88.5846C148.469 85.2249 145.692 82.5756 142.276 82.5881L142.256 76.9882C148.647 76.9648 153.926 81.9457 154.215 88.3319L148.62 88.5846ZM149.29 103.398L148.62 88.5848L154.215 88.3317L154.885 103.144L149.29 103.398ZM150.837 106.566L149.709 104.748L154.466 101.794L155.595 103.612L150.837 106.566ZM163.449 105.697C160.262 106.152 157.107 106.847 154.02 107.771L152.413 102.407C155.766 101.403 159.193 100.648 162.659 100.154L163.449 105.697ZM165.864 105.824C165.103 105.63 164.288 105.578 163.449 105.697L162.659 100.154C164.235 99.9287 165.788 100.026 167.246 100.397L165.864 105.824ZM166.48 105.945C166.353 105.918 166.225 105.894 166.098 105.873L167.012 100.348C167.22 100.383 167.427 100.422 167.634 100.465L166.48 105.945ZM170.664 106.826L166.481 105.945L167.634 100.465L171.818 101.346L170.664 106.826ZM182.545 108.862L170.768 106.846L171.714 101.326L183.49 103.343L182.545 108.862ZM194.655 112.875L182.143 108.762L183.892 103.442L196.404 107.555L194.655 112.875ZM193.061 111.602L192.912 111.21L198.147 109.22L198.296 109.612L193.061 111.602ZM195.12 113.373L194.787 113.261L196.57 107.952L196.903 108.064L195.12 113.373ZM195.395 117.905L193.348 111.581L198.675 109.856L200.723 116.18L195.395 117.905ZM197.068 126.362C196.844 123.485 196.283 120.647 195.395 117.905L200.723 116.18C201.746 119.341 202.393 122.612 202.651 125.926L197.068 126.362ZM197.843 136.301L197.068 126.361L202.651 125.926L203.426 135.866L197.843 136.301ZM199.934 147.658L197.881 136.594L203.387 135.572L205.44 146.636L199.934 147.658ZM200.242 148.446C200.255 148.515 200.281 148.581 200.319 148.64L205.056 145.654C205.386 146.177 205.619 146.761 205.738 147.375L200.242 148.446ZM201.425 154.511L200.242 148.447L205.738 147.375L206.921 153.439L201.425 154.511ZM201.434 154.594C201.433 154.57 201.43 154.541 201.424 154.507L206.922 153.442C206.986 153.772 207.024 154.112 207.032 154.459L201.434 154.594ZM201.533 158.428L201.434 154.599L207.032 154.454L207.131 158.283L201.533 158.428ZM201.516 158.575C201.528 158.527 201.534 158.476 201.533 158.425L207.131 158.286C207.145 158.854 207.081 159.422 206.938 159.974L201.516 158.575ZM200.55 162.311L201.516 158.573L206.938 159.975L205.972 163.713L200.55 162.311ZM199.532 165.034L200.633 162.044L205.888 163.98L204.787 166.969L199.532 165.034ZM203.249 164.216C202.08 163.049 200.099 163.49 199.531 165.037L204.789 166.966C203.95 169.252 201.021 169.904 199.294 168.18L203.249 164.216ZM203.568 165.293C203.651 164.9 203.529 164.494 203.247 164.213L199.297 168.183C198.235 167.126 197.778 165.602 198.089 164.133L203.568 165.293ZM203.917 163.645L203.568 165.293L198.089 164.133L198.438 162.485L203.917 163.645ZM198.616 161.854L198.859 161.496L203.496 164.635L203.254 164.993L198.616 161.854ZM202.838 162.694C202.421 160.665 199.775 160.147 198.618 161.851L203.252 164.996C201.633 167.381 197.933 166.653 197.352 163.819L202.838 162.694ZM202.625 163.763C202.836 163.451 202.914 163.065 202.837 162.69L197.353 163.823C197.123 162.711 197.355 161.558 197.987 160.624L202.625 163.763ZM203.442 162.557L202.624 163.764L197.988 160.623L198.806 159.416L203.442 162.557ZM204.145 158.743L203.912 161.246L198.336 160.727L198.569 158.224L204.145 158.743ZM203.761 155.223L204.134 158.127L198.579 158.84L198.207 155.936L203.761 155.223ZM201.985 152.26L203.218 153.892L198.75 157.268L197.517 155.636L201.985 152.26ZM196.651 154.861L197.029 153.292L202.473 154.603L202.096 156.172L196.651 154.861ZM197.042 154.545C196.854 154.55 196.695 154.68 196.652 154.86L202.095 156.173C201.545 158.453 199.533 160.083 197.184 160.143L197.042 154.545ZM199.19 157.437C199.667 155.989 198.564 154.505 197.039 154.545L197.187 160.143C194.836 160.205 193.135 157.917 193.871 155.685L199.19 157.437ZM200.03 154.884L199.19 157.436L193.871 155.686L194.71 153.133L200.03 154.884ZM200.114 151.796L200.169 153.937L194.571 154.08L194.516 151.94L200.114 151.796ZM200.491 150.03C200.228 150.58 200.099 151.185 200.114 151.796L194.516 151.939C194.478 150.445 194.794 148.961 195.441 147.611L200.491 150.03ZM201.212 148.527L200.491 150.031L195.441 147.611L196.162 146.107L201.212 148.527ZM201.209 148.727L200.716 149.246L196.657 145.388L197.15 144.869L201.209 148.727ZM201.123 148.801C201.155 148.779 201.183 148.754 201.208 148.729L197.151 144.868C197.388 144.62 197.645 144.399 197.92 144.208L201.123 148.801ZM197.899 133.053L202.172 145.602L196.871 147.407L192.598 134.858L197.899 133.053ZM195.732 128.901C196.662 130.165 197.394 131.566 197.9 133.053L192.598 134.857C192.277 133.913 191.812 133.023 191.22 132.218L195.732 128.901ZM191.883 116.94C191.836 121.227 193.176 125.425 195.732 128.901L191.22 132.218C187.942 127.759 186.222 122.374 186.284 116.878L191.883 116.94ZM187.469 114.139L189.03 114.11L189.137 119.709L187.575 119.738L187.469 114.139ZM179.246 113.54C181.962 113.991 184.714 114.192 187.469 114.139L187.575 119.738C184.478 119.797 181.383 119.572 178.328 119.064L179.246 113.54ZM174.02 112.671L179.246 113.54L178.328 119.064L173.101 118.195L174.02 112.671ZM171.04 119.524L170.767 115.629L176.353 115.237L176.626 119.132L171.04 119.524ZM170.779 122.69C171.026 121.652 171.114 120.584 171.04 119.523L176.626 119.133C176.74 120.761 176.605 122.399 176.226 123.99L170.779 122.69ZM169.151 129.519L170.778 122.691L176.226 123.988L174.599 130.817L169.151 129.519ZM170.165 145.276L169.083 130.371L174.668 129.965L175.751 144.87L170.165 145.276ZM175.992 154.573L170.637 146.64L175.279 143.507L180.634 151.44L175.992 154.573ZM177.148 155.56L176.974 155.466L179.652 150.547L179.825 150.642L177.148 155.56ZM183.091 166.407L176.075 154.524L180.897 151.677L187.913 163.559L183.091 166.407ZM191.285 177.159L183.278 166.684L187.727 163.283L195.734 173.758L191.285 177.159ZM194.433 183.158C193.776 181.074 192.715 179.029 191.285 177.159L195.734 173.758C197.545 176.126 198.914 178.748 199.774 181.473L194.433 183.158ZM199.156 184.22L199.146 184.23L195.06 180.401L195.07 180.391L199.156 184.22ZM202.187 180.977L199.159 184.217L195.067 180.394L198.095 177.153L202.187 180.977ZM208.556 176.988C206.095 177.775 203.863 179.182 202.187 180.977L198.095 177.153C200.447 174.637 203.509 172.723 206.85 171.654L208.556 176.988ZM223.896 172.081L208.556 176.988L206.85 171.654L222.189 166.748L223.896 172.081ZM229.989 169.472C228.044 170.532 225.999 171.409 223.895 172.081L222.19 166.747C223.954 166.184 225.672 165.447 227.308 164.555L229.989 169.472ZM238.199 164.993L229.989 169.472L227.307 164.556L235.517 160.077L238.199 164.993ZM234.143 161.849C234.174 161.726 234.208 161.605 234.246 161.485L239.594 163.145C239.586 163.172 239.578 163.197 239.572 163.221L234.143 161.849ZM234.245 161.487L234.312 161.272L239.661 162.928L239.595 163.143L234.245 161.487ZM234.88 160.255L236.623 158.264L240.836 161.953L239.093 163.944L234.88 160.255ZM236.623 158.264C238.21 156.451 240.325 155.059 242.643 154.26L244.468 159.555C243.027 160.051 241.75 160.909 240.836 161.953L236.623 158.264ZM246.082 155.702L251.5 167.059L246.446 169.47L241.028 158.113L246.082 155.702ZM251.5 167.059L254.405 173.148L249.351 175.559L246.446 169.47L251.5 167.059ZM254.405 173.148C255.261 174.942 254.212 176.448 253.54 177.029C252.813 177.657 251.564 178.176 250.188 177.728L251.921 172.403C251.006 172.105 250.26 172.462 249.877 172.793C249.547 173.079 248.68 174.153 249.351 175.559L254.405 173.148ZM250.187 177.728C248.718 177.249 247.393 176.384 246.43 175.162L250.829 171.696C251.035 171.958 251.389 172.229 251.923 172.403L250.187 177.728ZM246.432 175.163C244.846 173.153 242.682 171.458 240.071 170.253L242.417 165.168C245.771 166.715 248.657 168.943 250.828 171.695L246.432 175.163ZM240.071 170.253L237.732 169.173L240.078 164.089L242.418 165.168L240.071 170.253ZM237.65 169.134L237.453 169.035L239.963 164.029L240.16 164.128L237.65 169.134ZM195.204 189.537L237.26 164.135L240.156 168.929L198.1 194.331L195.204 189.537ZM194.835 189.668C194.935 189.658 195.067 189.621 195.204 189.538L198.1 194.331C197.258 194.84 196.335 195.143 195.412 195.238L194.835 189.668ZM193.519 189.834C193.848 189.868 194.112 189.834 194.315 189.773L195.933 195.134C194.981 195.421 193.966 195.511 192.935 195.403L193.519 189.834ZM191.616 189.634L193.518 189.833L192.935 195.403L191.033 195.204L191.616 189.634ZM192.279 189.872C192.12 189.762 191.9 189.664 191.619 189.635L191.031 195.204C190.313 195.128 189.655 194.864 189.107 194.487L192.279 189.872ZM192.053 189.715L192.284 189.875L189.102 194.483L188.87 194.323L192.053 189.715ZM173.687 172.041C178.762 178.835 184.988 184.851 192.049 189.713L188.873 194.325C181.305 189.114 174.638 182.671 169.201 175.393L173.687 172.041ZM159.241 177.338L170.076 171.274L172.811 176.161L161.976 182.225L159.241 177.338ZM148.302 185.283L158.959 177.519L162.257 182.045L151.6 189.809L148.302 185.283ZM137.859 188.965C141.364 188.909 145.063 187.642 148.302 185.283L151.599 189.809C147.517 192.783 142.714 194.488 137.949 194.564L137.859 188.965ZM134.503 192.599C134.733 191.774 135.085 190.993 135.529 190.282L140.279 193.248C140.105 193.526 139.977 193.818 139.897 194.104L134.503 192.599ZM133.311 196.87L134.503 192.599L139.897 194.104L138.705 198.375L133.311 196.87ZM129.501 203.348C131.32 201.515 132.651 199.237 133.311 196.87L138.705 198.375C137.78 201.693 135.946 204.804 133.475 207.293L129.501 203.348ZM118.155 214.779L129.501 203.348L133.475 207.293L122.129 218.724L118.155 214.779ZM113.953 219.906C115.189 218.067 116.6 216.346 118.155 214.779L122.129 218.724C120.825 220.039 119.64 221.484 118.601 223.03L113.953 219.906ZM108.736 227.667L113.953 219.906L118.601 223.03L113.384 230.791L108.736 227.667ZM108.351 229.95C108.346 229.923 108.341 229.897 108.335 229.873L113.785 228.585C113.814 228.707 113.839 228.831 113.862 228.955L108.351 229.95ZM108.39 230.167L108.35 229.945L113.863 228.96L113.903 229.183L108.39 230.167ZM107.798 231.582L108.426 229.011L113.866 230.339L113.238 232.91L107.798 231.582ZM105.683 235.385C106.732 234.28 107.469 232.929 107.798 231.581L113.238 232.911C112.667 235.251 111.433 237.462 109.745 239.24L105.683 235.385ZM99.3532 227.5L109.4 235.077L106.028 239.548L95.9813 231.971L99.3532 227.5ZM93.9661 223.438L99.353 227.5L95.9814 231.971L90.5945 227.909L93.9661 223.438ZM93.1414 227.425C94.092 227.267 94.5885 226.606 94.7757 226.135C94.9364 225.73 95.2108 224.376 93.9657 223.438L90.595 227.91C89.0069 226.713 89.2434 224.892 89.5716 224.067C89.9261 223.175 90.7951 222.138 92.2231 221.9L93.1414 227.425ZM94.4389 227.548C94.1331 227.41 93.6933 227.333 93.1414 227.425L92.2231 221.9C93.75 221.647 95.3236 221.805 96.7393 222.442L94.4389 227.548ZM104.913 229.458C101.223 229.633 97.6343 228.988 94.4391 227.548L96.7391 222.442C99.0735 223.494 101.775 224 104.648 223.864L104.913 229.458ZM107.485 229.336L104.912 229.458L104.648 223.864L107.221 223.743L107.485 229.336ZM107.613 229.336L107.392 229.339L107.314 223.74L107.535 223.737L107.613 229.336ZM135.513 186.125L109.964 227.995L105.184 225.078L130.733 183.208L135.513 186.125ZM135.566 185.988C135.631 185.899 135.688 185.796 135.733 185.68L130.513 183.653C130.645 183.312 130.821 182.992 131.034 182.699L135.566 185.988ZM135.734 185.755L135.569 185.984L131.03 182.704L131.196 182.475L135.734 185.755ZM160.823 163.372C151.065 168.838 142.402 176.535 135.734 185.756L131.196 182.474C138.34 172.596 147.617 164.351 158.086 158.487L160.823 163.372ZM147.719 136.882L161.829 159.445L157.081 162.414L142.971 139.851L147.719 136.882ZM140.755 132.826L146.637 135.882L144.054 140.851L138.173 137.795L140.755 132.826ZM139.332 131.933C139.781 132.268 140.256 132.567 140.754 132.825L138.173 137.795C137.407 137.397 136.674 136.937 135.982 136.421L139.332 131.933ZM134.688 128.467L139.332 131.933L135.982 136.421L131.338 132.955L134.688 128.467ZM129.177 132.485L130.449 129.587L135.577 131.836L134.306 134.735L129.177 132.485ZM126.556 136.791L129.343 132.165L134.14 135.055L131.353 139.681L126.556 136.791ZM121.671 143.432C123.5 141.372 125.135 139.149 126.556 136.791L131.352 139.681C129.754 142.333 127.915 144.833 125.858 147.15L121.671 143.432ZM119.167 146.251L121.671 143.432L125.858 147.15L123.354 149.969L119.167 146.251ZM118.552 148.82C118.549 148.807 118.546 148.794 118.542 148.781L123.979 147.44C123.99 147.482 124 147.524 124.01 147.567L118.552 148.82ZM117.925 149.719L118.591 147.416L123.97 148.972L123.304 151.275L117.925 149.719ZM109.338 161.057C113.503 158.472 116.56 154.437 117.925 149.719L123.304 151.275C121.555 157.322 117.635 162.499 112.291 165.816L109.338 161.057ZM105.78 164.105C106.803 162.913 108.003 161.886 109.337 161.057L112.291 165.815C111.442 166.342 110.679 166.996 110.028 167.753L105.78 164.105ZM98.3628 172.743L105.78 164.105L110.028 167.753L102.611 176.391L98.3628 172.743ZM98.2216 176.344L97.942 175.734L103.032 173.4L103.312 174.009L98.2216 176.344ZM98.1796 177.158L97.9856 175.502L103.548 174.851L103.742 176.507L98.1796 177.158ZM97.9639 178.952C98.1765 178.379 98.2504 177.764 98.1795 177.158L103.742 176.508C103.915 177.993 103.734 179.499 103.214 180.901L97.9639 178.952ZM97.2177 180.957L97.9646 178.95L103.213 180.903L102.466 182.91L97.2177 180.957ZM97.0094 184.586L97.042 181.9L102.642 181.967L102.609 184.654L97.0094 184.586ZM99.9801 182.548C98.5499 182.016 97.0283 183.063 97.0094 184.585L102.609 184.655C102.58 187.003 100.233 188.617 98.0281 187.797L99.9801 182.548ZM100.246 182.972C100.264 182.787 100.154 182.613 99.9805 182.548L98.0277 187.797C95.8281 186.978 94.4511 184.786 94.6708 182.448L100.246 182.972ZM100.397 181.365L100.246 182.972L94.6708 182.448L94.8218 180.841L100.397 181.365ZM94.3469 179.928L96.0429 178.783L99.1762 183.424L97.4802 184.569L94.3469 179.928ZM92.108 183.636L93.4021 181.01L98.425 183.486L97.1309 186.112L92.108 183.636ZM91.3071 186.659L91.8978 184.216L97.341 185.532L96.7503 187.975L91.3071 186.659ZM91.7087 189.458L91.3266 188.051L96.7308 186.583L97.1129 187.99L91.7087 189.458ZM91.8556 188.374C91.6611 188.703 91.6099 189.094 91.7087 189.458L97.1129 187.99C97.4088 189.08 97.254 190.246 96.6768 191.223L91.8556 188.374ZM96.1201 188.952C95.5794 186.956 92.9041 186.595 91.8541 188.377L96.6783 191.22C95.211 193.709 91.4707 193.205 90.715 190.416L96.1201 188.952ZM96.0065 188.533L96.1197 188.95L90.7153 190.417L90.6021 190L96.0065 188.533ZM90.3202 190.598L90.525 188.926L96.0835 189.607L95.8787 191.279L90.3202 190.598ZM90.9742 189.682C90.6138 189.857 90.3689 190.202 90.3204 190.596L95.8785 191.28C95.6956 192.766 94.7737 194.061 93.4238 194.718L90.9742 189.682ZM94.2213 191.662C94.1838 190.016 92.4551 188.961 90.9742 189.682L93.4238 194.718C91.235 195.782 88.6781 194.223 88.6227 191.789L94.2213 191.662ZM94.1496 188.477L94.2213 191.663L88.6227 191.788L88.551 188.603L94.1496 188.477ZM94.4396 184.908L94.142 188.756L88.5587 188.324L88.8563 184.476L94.4396 184.908ZM94.471 184.765C94.4548 184.809 94.4436 184.858 94.4393 184.912L88.8566 184.472C88.901 183.908 89.0228 183.349 89.2229 182.811L94.471 184.765ZM95.8065 181.174L94.4714 184.764L89.2225 182.812L90.5576 179.222L95.8065 181.174ZM95.8403 181.101C95.83 181.119 95.8177 181.143 95.8057 181.176L90.5583 179.22C90.6756 178.905 90.8208 178.594 90.996 178.291L95.8403 181.101ZM98.929 175.741L95.8442 181.094L90.9922 178.298L94.077 172.945L98.929 175.741ZM98.7372 175.939C98.816 175.89 98.8822 175.822 98.9291 175.741L94.0768 172.945C94.4927 172.224 95.0789 171.62 95.78 171.184L98.7372 175.939ZM104.479 167.399L99.6237 175.06L94.8935 172.063L99.7488 164.401L104.479 167.399ZM109.041 158.203L104.624 167.14L99.6038 164.659L104.021 155.722L109.041 158.203ZM113.742 150.977C111.897 153.192 110.32 155.617 109.041 158.204L104.021 155.722C105.495 152.742 107.313 149.947 109.439 147.394L113.742 150.977ZM115.651 148.685L113.742 150.977L109.439 147.394L111.348 145.101L115.651 148.685ZM121.042 135.89L116.09 147.956L110.909 145.83L115.861 133.764L121.042 135.89ZM126.973 125.997L120.857 136.261L116.046 133.394L122.162 123.13L126.973 125.997ZM129.074 122.151L127.026 125.905L122.11 123.223L124.158 119.469L129.074 122.151ZM131.685 119.189C130.621 119.958 129.723 120.961 129.074 122.151L124.158 119.469C125.215 117.532 126.677 115.898 128.406 114.649L131.685 119.189ZM133.284 117.88C132.818 118.161 132.417 118.487 132.078 118.845L128.013 114.993C128.701 114.268 129.498 113.622 130.4 113.08L133.284 117.88ZM139.294 114.27L133.284 117.88L130.4 113.08L136.409 109.469L139.294 114.27ZM63.2001 212.52C70.7311 213.028 76.4242 219.545 75.916 227.076L70.3287 226.699C70.6287 222.254 67.2682 218.407 62.8231 218.107L63.2001 212.52ZM48.6439 225.236C49.1521 217.705 55.669 212.012 63.2001 212.52L62.8231 218.107C58.378 217.807 54.5312 221.168 54.2312 225.613L48.6439 225.236ZM61.3599 239.793C53.8288 239.285 48.1358 232.767 48.6439 225.236L54.2312 225.613C53.9312 230.059 57.2917 233.905 61.7368 234.205L61.3599 239.793ZM75.916 227.076C75.4079 234.607 68.8909 240.301 61.3599 239.793L61.7368 234.205C66.182 234.505 70.0288 231.145 70.3287 226.699L75.916 227.076Z" fill="#FF0000" fill-opacity="0.33" mask="url(#path-4-outside-1_976_1393)"/>
</svg>
