<svg width="300" height="300" viewBox="0 0 300 300" fill="none" xmlns="http://www.w3.org/2000/svg">
<g clip-path="url(#clip0_586_31105)">
<rect width="300" height="300" fill="white"/>
<path d="M78.913 174C78.913 176.946 81.3008 179.333 84.2463 179.333C87.1919 179.333 89.5797 176.946 89.5797 174C89.5797 171.054 87.1919 168.667 84.2463 168.667C81.3008 168.667 78.913 171.054 78.913 174ZM-0.839893 214.486L40.7818 278.894L42.4616 277.809L0.839893 213.4L-0.839893 214.486ZM40.7818 278.894L82.4035 343.303L84.0833 342.217L42.4616 277.809L40.7818 278.894ZM41.0998 277.498L-0.521872 302.962L0.521872 304.668L42.1436 279.205L41.0998 277.498ZM42.5474 278.73L85.1721 174.378L83.3206 173.622L40.696 277.973L42.5474 278.73ZM41.93 279.303L342.308 181.941L341.692 180.039L41.3134 277.4L41.93 279.303Z" fill="#E8EAF6"/>
<path d="M52.3333 19C52.3333 16.0545 49.9455 13.6667 47 13.6667C44.0545 13.6667 41.6667 16.0545 41.6667 19C41.6667 21.9455 44.0545 24.3334 47 24.3334C49.9455 24.3334 52.3333 21.9455 52.3333 19ZM309 299C307.989 299 306.98 298.994 305.972 298.983L305.949 300.983C306.965 300.994 307.982 301 309 301L309 299ZM299.94 298.846C297.929 298.777 295.924 298.686 293.925 298.572L293.811 300.569C295.825 300.683 297.846 300.775 299.871 300.845L299.94 298.846ZM287.9 298.16C285.897 297.999 283.9 297.816 281.91 297.611L281.705 299.601C283.71 299.807 285.722 299.992 287.741 300.153L287.9 298.16ZM275.906 296.922C273.912 296.67 271.925 296.395 269.945 296.098L269.648 298.076C271.643 298.375 273.646 298.652 275.655 298.906L275.906 296.922ZM263.983 295.132C262.002 294.788 260.028 294.421 258.062 294.032L257.673 295.994C259.655 296.386 261.644 296.756 263.641 297.103L263.983 295.132ZM252.156 292.792C250.192 292.356 248.236 291.898 246.289 291.417L245.81 293.359C247.772 293.843 249.743 294.305 251.723 294.745L252.156 292.792ZM240.451 289.905C238.509 289.378 236.575 288.829 234.651 288.258L234.082 290.175C236.021 290.751 237.97 291.304 239.927 291.835L240.451 289.905ZM228.893 286.477C226.977 285.859 225.07 285.221 223.174 284.561L222.516 286.449C224.427 287.115 226.348 287.758 228.279 288.38L228.893 286.477ZM217.506 282.514C215.621 281.808 213.746 281.081 211.881 280.333L211.137 282.189C213.015 282.943 214.905 283.675 216.805 284.387L217.506 282.514ZM206.316 278.025C204.465 277.232 202.626 276.419 200.798 275.585L199.968 277.405C201.81 278.245 203.663 279.065 205.528 279.863L206.316 278.025ZM195.346 273.021C193.534 272.144 191.734 271.246 189.947 270.328L189.033 272.107C190.835 273.032 192.648 273.937 194.474 274.821L195.346 273.021ZM184.619 267.514C182.851 266.553 181.094 265.573 179.351 264.573L178.356 266.308C180.113 267.316 181.883 268.303 183.665 269.271L184.619 267.514ZM174.158 261.515C172.436 260.474 170.727 259.414 169.032 258.334L167.958 260.022C169.666 261.109 171.388 262.177 173.123 263.226L174.158 261.515ZM163.985 255.039C162.314 253.92 160.656 252.783 159.012 251.626L157.862 253.262C159.518 254.427 161.188 255.574 162.872 256.701L163.985 255.039ZM154.122 248.101C152.504 246.907 150.901 245.694 149.312 244.464L148.087 246.045C149.688 247.285 151.304 248.507 152.934 249.71L154.122 248.101ZM144.588 240.717C143.028 239.45 141.482 238.165 139.951 236.862L138.655 238.386C140.197 239.698 141.755 240.993 143.327 242.27L144.588 240.717ZM135.404 232.902C133.904 231.565 132.419 230.21 130.95 228.839L129.585 230.301C131.065 231.683 132.562 233.048 134.074 234.395L135.404 232.902ZM126.589 224.674C125.152 223.27 123.73 221.848 122.326 220.411L120.895 221.809C122.311 223.257 123.743 224.689 125.191 226.105L126.589 224.674ZM118.161 216.05C116.79 214.581 115.435 213.096 114.098 211.596L112.604 212.926C113.952 214.438 115.317 215.935 116.699 217.415L118.161 216.05ZM110.138 207.049C108.835 205.518 107.55 203.972 106.283 202.412L104.73 203.672C106.007 205.245 107.302 206.803 108.614 208.345L110.138 207.049ZM102.536 197.688C101.306 196.099 100.093 194.496 98.8986 192.878L97.2896 194.066C98.4932 195.696 99.7151 197.312 100.955 198.913L102.536 197.688ZM95.3736 187.988C94.2174 186.344 93.0797 184.686 91.9608 183.015L90.2989 184.128C91.4263 185.812 92.5727 187.482 93.7378 189.138L95.3736 187.988ZM88.6655 177.968C87.5862 176.272 86.526 174.564 85.4851 172.842L83.7736 173.877C84.8225 175.612 85.8908 177.333 86.9783 179.042L88.6655 177.968ZM82.427 167.649C81.4271 165.906 80.4467 164.149 79.4862 162.381L77.7286 163.335C78.6965 165.117 79.6844 166.887 80.692 168.644L82.427 167.649ZM76.6723 157.053C75.7543 155.265 74.8564 153.466 73.9787 151.654L72.1788 152.526C73.0632 154.352 73.9681 156.165 74.8932 157.967L76.6723 157.053ZM71.4149 146.202C70.581 144.374 69.7675 142.535 68.9749 140.684L67.1364 141.472C67.9352 143.336 68.7549 145.19 69.5953 147.032L71.4149 146.202ZM66.6669 135.119C65.9191 133.254 65.1921 131.379 64.4863 129.494L62.6133 130.195C63.3245 132.095 64.0571 133.985 64.8107 135.863L66.6669 135.119ZM62.4394 123.826C61.7793 121.93 61.1405 120.023 60.5233 118.107L58.6196 118.721C59.2417 120.651 59.8854 122.573 60.5506 124.484L62.4394 123.826ZM58.7419 112.349C58.1712 110.425 57.622 108.491 57.0947 106.549L55.1645 107.073C55.6959 109.03 56.2493 110.979 56.8245 112.918L58.7419 112.349ZM55.5826 100.711C55.1023 98.7639 54.6439 96.8079 54.2076 94.8435L52.2552 95.2772C52.6949 97.2567 53.1568 99.2278 53.6408 101.19L55.5826 100.711ZM52.9679 88.9382C52.5789 86.9722 52.2121 84.9983 51.8676 83.0166L49.8971 83.3592C50.2443 85.3561 50.614 87.3452 51.0059 89.3264L52.9679 88.9382ZM50.9023 77.0549C50.6052 75.075 50.3304 73.0878 50.0781 71.0936L48.0939 71.3447C48.3481 73.3541 48.6251 75.3566 48.9244 77.3516L50.9023 77.0549ZM49.3888 65.0902C49.1836 63.0999 49.0007 61.103 48.8405 59.0998L46.8469 59.2592C47.0083 61.2778 47.1926 63.2899 47.3994 65.2953L49.3888 65.0902ZM48.4281 53.0749C48.3142 51.0759 48.2229 49.0709 48.1543 47.0601L46.1554 47.1283C46.2246 49.1543 46.3166 51.1745 46.4313 53.1886L48.4281 53.0749ZM48.0172 41.0282C48.0057 40.0202 48 39.0107 48 37.9999L46 37.9999C46 39.0183 46.0058 40.0353 46.0173 41.051L48.0172 41.0282ZM48 37.9999L48 35.6249L46 35.6249L46 37.9999L48 37.9999ZM48 30.875L48 26.125L46 26.125L46 30.875L48 30.875ZM48 21.375L48 19L46 19L46 21.375L48 21.375Z" fill="#E8EAF6"/>
</g>
<defs>
<clipPath id="clip0_586_31105">
<rect width="300" height="300" fill="white"/>
</clipPath>
</defs>
</svg>
