<svg width="24" height="25" viewBox="0 0 24 25" fill="none" xmlns="http://www.w3.org/2000/svg">
<g clip-path="url(#clip0_12_665)">
<path d="M22.0028 6.33205H2.00104C1.4708 6.33039 0.961248 6.53771 0.582784 6.9091C0.395729 7.09645 0.247866 7.31918 0.147826 7.56429C0.0477862 7.80941 -0.00242691 8.07199 0.000117886 8.33672V17.2622C-0.00276162 17.526 0.0471371 17.7877 0.146879 18.0319C0.246621 18.2761 0.394192 18.4979 0.580911 18.6842C0.767372 18.8706 0.988805 19.0184 1.23251 19.119C1.47621 19.2196 1.73738 19.2712 2.00104 19.2706H22.0028C22.5336 19.2681 23.0419 19.0554 23.4162 18.6789C23.7905 18.3025 24.0004 17.7931 23.9999 17.2622V8.33485C24.0019 8.07381 23.9524 7.81495 23.8544 7.57303C23.7563 7.33111 23.6115 7.11087 23.4284 6.9249C23.2452 6.73893 23.0271 6.59086 22.7867 6.48914C22.5463 6.38743 22.2882 6.33406 22.0272 6.33209C22.0191 6.33203 22.0109 6.33202 22.0028 6.33205Z" fill="white"/>
<path d="M23.2973 8.33493C23.3013 7.99408 23.1697 7.66562 22.9315 7.42179C22.6933 7.17796 22.368 7.03874 22.0272 7.03475C22.019 7.03466 22.0109 7.03464 22.0027 7.0347H16.4121L19.6196 12.3949L19.9156 12.4323L20.1029 12.6777V12.9063L20.3053 12.9475L20.4926 13.2023V13.4234L20.7025 13.4609L20.9142 13.6913V14.2009C21.1662 14.4285 21.4503 14.6179 21.7573 14.763C22.0402 14.8717 22.072 15.325 22.2425 15.5667C22.4561 15.919 22.7484 16.0595 22.6865 16.2562C22.5441 16.7826 22.0046 17.6707 21.5025 17.7119H19.5165V18.5625H22.0046C22.3494 18.561 22.6795 18.4226 22.9223 18.1777C23.1651 17.9329 23.3007 17.6015 23.2992 17.2567L23.2992 17.251V8.33493" fill="#BF0D3E"/>
<path d="M9.62063 17.725H8.65952C8.65952 15.3232 9.47075 13.9948 10.4431 13.7307C10.5761 13.7063 10.5124 13.0506 10.3438 12.8501H9.78176C9.69183 12.8501 9.74429 12.6815 9.74429 12.6815L10.1996 11.7091L10.1377 11.4431H8.4553L9.83796 10.4764C9.90166 7.92649 12.5171 7.72789 14.0927 8.79018C15.0295 9.41032 15.1007 10.6393 15.0295 11.4881C15.0183 11.5424 14.7859 11.5068 14.7859 11.5068C14.7859 11.5068 14.6267 12.4435 15.0426 12.4435H16.8805C17.6299 12.4136 18.3531 12.9213 18.3531 12.9213L18.5292 12.2787L14.503 7.03469H2.00101C1.65517 7.03267 1.32252 7.16734 1.07549 7.40939C0.955042 7.5313 0.85992 7.67585 0.795609 7.83469C0.731298 7.99354 0.69907 8.16355 0.700785 8.33492V17.2623C0.698631 17.4331 0.730671 17.6027 0.795021 17.761C0.85937 17.9193 0.95473 18.0631 1.07549 18.184C1.321 18.4295 1.65383 18.5676 2.00101 18.5681H10.1171C9.91852 18.2271 9.69182 17.8393 9.6225 17.725" fill="#041E42"/>
<path d="M2.50322 15.8309C2.50323 15.6553 2.55532 15.4836 2.6529 15.3375C2.75049 15.1915 2.88919 15.0777 3.05146 15.0105C3.21373 14.9432 3.39229 14.9257 3.56455 14.9599C3.73682 14.9942 3.89505 15.0788 4.01924 15.203C4.14343 15.3272 4.22801 15.4854 4.26227 15.6577C4.29653 15.83 4.27893 16.0085 4.21171 16.1708C4.14449 16.3331 4.03066 16.4718 3.88462 16.5693C3.73858 16.6669 3.56688 16.719 3.39124 16.719L3.38378 16.7189C3.26839 16.7192 3.15408 16.6967 3.04738 16.6528C2.94067 16.6089 2.84367 16.5444 2.7619 16.4629C2.68012 16.3815 2.61519 16.2848 2.5708 16.1783C2.52641 16.0718 2.50343 15.9576 2.50318 15.8422C2.50317 15.8384 2.50318 15.8347 2.50322 15.8309Z" fill="white"/>
</g>
<defs>
<clipPath id="clip0_12_665">
<rect width="24" height="12.9386" fill="white" transform="translate(0 6.33203)"/>
</clipPath>
</defs>
</svg>
