<svg width="24" height="25" viewBox="0 0 24 25" fill="none" xmlns="http://www.w3.org/2000/svg">
<g clip-path="url(#clip0_12_663)">
<path d="M17.1492 2.7653C17.1341 1.44665 16.0378 0.338264 14.7191 0.335261C12.8237 0.332257 10.9254 0.332257 9.03001 0.335261C7.72638 0.341268 6.59997 1.45266 6.59997 2.7653C6.59997 9.14227 6.59696 15.5222 6.59997 21.8992C6.60297 23.1878 7.65729 24.2722 8.93389 24.3353H14.8152C16.0948 24.2692 17.1492 23.1878 17.1492 21.8992C17.1522 15.5192 17.1492 9.14227 17.1492 2.7653ZM14.638 23.7615C12.7637 23.7615 10.8953 23.7645 9.02099 23.7615C8.3061 23.7585 7.62725 23.29 7.3419 22.6351C7.22475 22.3738 7.17669 22.0824 7.17669 21.7941C7.17669 15.5523 7.17669 9.31048 7.17669 3.06868C7.15867 2.70522 7.19171 2.32375 7.36292 1.99033C7.6633 1.34152 8.35116 0.905974 9.06305 0.908978C10.1384 0.911982 11.2077 0.890955 12.2831 0.920993H12.2741C12.0187 1.00209 11.7604 1.15228 11.6553 1.41361C11.5562 1.68695 11.5502 1.98432 11.5321 2.27268C11.427 2.2847 11.2828 2.29371 11.2828 2.43789C11.2828 2.63914 11.2618 2.91248 11.463 3.02662C11.409 3.31198 11.457 3.63939 11.2828 3.8857C11.0876 4.05391 10.7992 3.99684 10.5619 4.02988L10.4988 4.10197C10.2435 4.123 9.9822 4.14102 9.72988 4.19509C9.49859 4.25216 9.28833 4.39033 9.13514 4.57356C8.88883 4.86793 8.7056 5.21035 8.52838 5.55278C8.33013 5.93126 8.23401 6.35779 8.03276 6.73626C7.7444 7.328 7.45604 7.92275 7.30585 8.56555C7.27281 8.6827 7.32688 8.79383 7.35992 8.90197C7.41098 9.04615 7.43501 9.19333 7.49509 9.33451C7.75942 9.4096 8.03276 9.4036 8.3031 9.39459C8.3031 9.46968 8.3031 9.54778 8.30009 9.62287C8.18295 9.78808 7.99071 9.90522 7.93664 10.1125C7.83451 10.4819 7.76843 10.8664 7.73839 11.2509C7.77143 12.2181 8.51036 12.951 8.72663 13.8642L9.21924 13.9393C9.61273 14.7082 10.1174 15.4141 10.622 16.111C10.8353 16.3723 11.0185 16.6607 11.2858 16.8709C11.5231 17.0722 11.7214 17.3095 11.9497 17.5197C12.4423 17.9853 12.9619 18.4299 13.5507 18.7663C13.6438 18.9645 13.7339 19.1658 13.797 19.3761C13.7339 19.4842 13.6738 19.6104 13.7429 19.7335C13.9201 20.157 14.2265 20.5325 14.3226 20.9921C14.3256 21.0972 14.2325 21.1963 14.2836 21.3015C14.3256 21.3826 14.3857 21.4487 14.4428 21.5177C14.4428 22.1095 14.2716 22.6892 14.3256 23.2809C14.3406 23.4882 14.4998 23.6354 14.641 23.7645C14.641 23.7615 14.641 23.7615 14.638 23.7615ZM16.5184 22.3167C16.3592 23.0527 15.7043 23.6414 14.9654 23.7465C15.1667 23.6053 15.3409 23.4161 15.395 23.1668C15.4821 22.7102 15.2988 22.2717 15.1547 21.8482C15.0856 21.71 15.1817 21.5538 15.1156 21.4186C14.9834 21.1423 14.9594 20.8329 14.9114 20.5355C14.8573 20.151 15.0285 19.7936 15.0615 19.4181C15.0646 19.0637 14.7912 18.8053 14.623 18.52C14.5449 18.3217 14.5509 18.1025 14.5028 17.8982C14.3617 17.1863 14.3376 16.4204 13.9502 15.7836C13.6648 15.336 13.4095 14.8464 13.3824 14.3057C13.3224 13.4827 13.1722 12.6687 12.9439 11.8757L13.058 11.7615L12.5144 9.83013C12.4543 9.61686 12.3311 9.4066 12.1089 9.31649C12.1119 9.21436 12.1089 9.10923 12.1509 9.01311L12.6105 7.83564C12.6405 7.76955 12.6706 7.70047 12.7306 7.65241C12.9379 7.48119 13.1722 7.34903 13.4125 7.22888C13.5266 7.8837 13.6438 8.53551 13.788 9.18132L13.9111 9.53276C14.1424 10.0164 14.3977 10.488 14.593 10.9866C13.7129 11.1788 13.1121 12.161 13.3524 13.0351C13.5416 13.9333 14.5569 14.54 15.431 14.2667C15.4971 14.2487 15.5602 14.2276 15.6232 14.2036C16.0528 14.0354 16.3982 13.6749 16.5784 13.2484C16.5844 15.9398 16.5814 18.6281 16.5814 21.3195C16.5784 21.6529 16.6085 21.9923 16.5184 22.3167ZM16.5814 12.0199C16.4763 11.8276 16.3652 11.6384 16.2841 11.4371C16.2811 11.4371 16.2781 11.4341 16.2751 11.4341C16.3562 11.6384 16.4673 11.8276 16.5724 12.0139C16.4673 11.8246 16.3562 11.6354 16.2751 11.4311C16.1639 11.3711 16.0348 11.326 15.9657 11.2119C15.8756 11.0737 15.6863 11.0767 15.5482 11.0076C15.437 10.5991 15.455 10.1665 15.2928 9.77306C15.1697 9.4066 14.9174 9.09121 14.8633 8.70372C14.8122 8.33426 14.7281 7.9678 14.662 7.60134C14.6741 6.95854 14.647 6.27368 14.3166 5.70297C14.0823 5.29446 13.6558 5.07218 13.2863 4.81386L13.2653 4.70572C13.058 4.56154 12.8328 4.4504 12.6075 4.33927C12.6255 4.25516 12.5985 4.13501 12.6916 4.08695C12.9289 3.92174 13.034 3.64239 13.1722 3.40209C13.3524 3.34202 13.4095 3.14377 13.5056 2.99959C13.5837 2.89146 13.5837 2.74427 13.4966 2.64214C13.6498 2.32375 13.785 1.94828 13.6618 1.59684C13.6288 1.47068 13.5356 1.37756 13.4155 1.3295C13.2953 1.12224 13.0911 0.99909 12.8778 0.911982C13.4425 0.896963 14.0102 0.911982 14.5779 0.905974C15.0585 0.896963 15.5482 1.04715 15.9116 1.36855C16.3441 1.73201 16.5814 2.29671 16.5844 2.85841C16.5814 5.91323 16.5875 8.96505 16.5814 12.0199ZM9.37243 19.0967C9.52563 19.0967 9.68182 19.0967 9.83501 19.0967C9.83501 20.2592 9.83501 21.4186 9.83501 22.5811C9.61574 22.5811 9.39646 22.5811 9.17719 22.5811C9.06905 21.9052 8.96392 21.2294 8.85579 20.5535C8.81374 20.3132 8.7837 20.0729 8.73864 19.8326C8.76868 20.2051 8.78069 20.5806 8.79271 20.953C8.81374 21.4937 8.80172 22.0374 8.80472 22.5811C8.64853 22.5811 8.49534 22.5811 8.33914 22.5811C8.34215 21.4186 8.34215 20.2562 8.34215 19.0937C8.58245 19.0937 8.81974 19.0937 9.06004 19.0937C9.20723 19.9798 9.35141 20.8629 9.49859 21.749C9.51061 21.8121 9.51361 21.8782 9.53464 21.9413C9.53163 21.9172 9.52563 21.8962 9.52262 21.8722C9.46255 21.2414 9.40848 20.6106 9.38144 19.9768C9.36643 19.6854 9.37544 19.3911 9.37243 19.0967ZM11.9226 19.0937C11.7965 20.2562 11.6673 21.4156 11.5411 22.5781C11.7214 22.5781 11.9016 22.5781 12.0788 22.5781C12.0938 22.3498 12.1089 22.1515 12.1239 21.9232C12.232 21.9232 12.3401 21.9232 12.4483 21.9232C12.4663 22.1515 12.4813 22.3498 12.4993 22.5781C12.6856 22.5781 12.8748 22.5781 13.061 22.5781C12.9349 21.4156 12.8087 20.2562 12.6856 19.0937C12.4273 19.0937 12.1749 19.0937 11.9226 19.0937ZM12.1509 21.5237C12.202 20.8329 12.232 20.0729 12.2741 19.3791C12.2801 19.4211 12.2861 19.4662 12.2861 19.5082C12.3251 20.157 12.3762 20.8749 12.4182 21.5237C12.3311 21.5237 12.241 21.5237 12.1509 21.5237ZM11.4661 21.6229C11.46 21.4517 11.4871 21.2774 11.421 21.1122C11.3819 21.0101 11.3038 20.923 11.2047 20.8629C11.388 20.7638 11.454 20.5655 11.463 20.3853C11.4691 20.1781 11.463 19.9738 11.4661 19.7666C11.463 19.5863 11.421 19.3971 11.2798 19.2589C11.1537 19.1388 10.9644 19.0907 10.7842 19.0907C10.5559 19.0937 10.3276 19.0937 10.0993 19.0937C10.0993 20.2562 10.0993 21.4156 10.0993 22.5781C10.3216 22.5781 10.5439 22.5781 10.7692 22.5781C10.9284 22.5781 11.0966 22.542 11.2227 22.4489C11.3309 22.3708 11.397 22.2597 11.433 22.1455C11.4841 21.9743 11.463 21.8001 11.4661 21.6229ZM10.9314 21.9232C10.9284 21.9863 10.9194 22.0584 10.8593 22.1005C10.7932 22.1455 10.7061 22.1335 10.628 22.1365C10.631 21.7791 10.631 21.4246 10.631 21.0672C10.7061 21.0672 10.7932 21.0612 10.8593 21.1032C10.9194 21.1453 10.9314 21.2174 10.9314 21.2774C10.9314 21.4937 10.9314 21.707 10.9314 21.9232ZM10.9314 20.4694C10.9284 20.5325 10.9224 20.6076 10.8623 20.6497C10.7962 20.6917 10.7091 20.6827 10.631 20.6857C10.631 20.3012 10.631 19.9167 10.631 19.5353C10.7061 19.5353 10.7902 19.5263 10.8563 19.5683C10.9164 19.6074 10.9284 19.6824 10.9314 19.7425C10.9314 19.9858 10.9314 20.2261 10.9314 20.4694Z" fill="white"/>
<path d="M16.5813 12.0201C16.4762 11.8278 16.3651 11.6386 16.284 11.4374C16.1728 11.3773 16.0437 11.3292 15.9746 11.2181C15.8845 11.0769 15.6952 11.0829 15.557 11.0138C15.4489 10.6083 15.4669 10.1728 15.3017 9.77928C15.1786 9.41583 14.9263 9.10043 14.8722 8.71295C14.8211 8.34349 14.737 7.97703 14.6679 7.61057C14.68 6.96476 14.6529 6.28291 14.3225 5.7122C14.0912 5.30369 13.6647 5.08141 13.2922 4.82309C13.2862 4.79605 13.2772 4.74198 13.2712 4.71495C13.0639 4.57077 12.8387 4.45963 12.6134 4.34849C12.6314 4.26138 12.6014 4.14424 12.6975 4.09618C12.9348 3.93398 13.0429 3.65463 13.1781 3.41132C13.3613 3.35425 13.4154 3.153 13.5115 3.00882C13.5896 2.90068 13.5896 2.7535 13.5025 2.65137C13.6557 2.33297 13.7908 1.9575 13.6677 1.60606C13.6346 1.47991 13.5385 1.38078 13.4184 1.33272C13.2982 1.12246 13.094 0.999306 12.8777 0.912198C13.4424 0.897179 14.0101 0.912198 14.5778 0.90619C15.0584 0.897179 15.548 1.04737 15.9115 1.36877C16.344 1.73222 16.5813 2.29693 16.5843 2.85863C16.5813 5.91345 16.5873 8.96526 16.5813 12.0201ZM16.5813 21.3197C16.5813 18.6283 16.5843 15.94 16.5783 13.2486C16.3741 13.7352 15.9535 14.1347 15.4369 14.2639C14.5628 14.5372 13.5475 13.9305 13.3583 13.0323C13.118 12.1583 13.7188 11.176 14.5989 10.9838C14.4036 10.4852 14.1483 10.0106 13.917 9.52997C13.8629 9.41883 13.8239 9.29868 13.7938 9.17853C13.6497 8.53272 13.5295 7.88091 13.4184 7.22609C13.1811 7.35225 12.9438 7.48742 12.7365 7.65863C12.6764 7.70369 12.6464 7.77578 12.6164 7.84186C12.4572 8.23235 12.307 8.62584 12.1568 9.01933C12.1147 9.11545 12.1177 9.22058 12.1147 9.32271C12.331 9.40381 12.4542 9.61408 12.5142 9.82734C12.7065 10.4701 12.8837 11.1129 13.0579 11.7588C13.0189 11.7978 12.9828 11.8339 12.9438 11.8729C13.1721 12.6659 13.3253 13.4799 13.3823 14.3029C13.4094 14.8436 13.6647 15.3362 13.95 15.7808C14.3375 16.4176 14.3616 17.1835 14.5027 17.8954C14.5538 18.0997 14.5448 18.319 14.6229 18.5172C14.7911 18.8026 15.0644 19.0609 15.0614 19.4153C15.0284 19.7908 14.8572 20.1482 14.9112 20.5327C14.9593 20.8301 14.9833 21.1395 15.1155 21.4158C15.1816 21.551 15.0855 21.7072 15.1545 21.8454C15.2987 22.2689 15.482 22.7074 15.3948 23.164C15.3408 23.4133 15.1636 23.6056 14.9593 23.7467C15.7012 23.6446 16.3591 23.0559 16.5183 22.317C16.6084 21.9925 16.5783 21.6531 16.5813 21.3197Z" fill="#C8202E"/>
<path fill-rule="evenodd" clip-rule="evenodd" d="M10.9314 19.7427C10.9314 19.986 10.9314 20.2263 10.9314 20.4696C10.9284 20.5327 10.9224 20.6078 10.8623 20.6498C10.7963 20.6919 10.7092 20.6829 10.6311 20.6859C10.6311 20.3014 10.6311 19.9169 10.6311 19.5354C10.7062 19.5354 10.7903 19.5264 10.8563 19.5685C10.9164 19.6075 10.9284 19.6826 10.9314 19.7427ZM10.8593 21.1034C10.7933 21.0614 10.7062 21.0674 10.6311 21.0674C10.6311 21.4248 10.6311 21.7793 10.6281 22.1367C10.7062 22.1337 10.7933 22.1457 10.8593 22.1007C10.9194 22.0586 10.9284 21.9865 10.9314 21.9234C10.9314 21.7072 10.9314 21.4939 10.9314 21.2776C10.9314 21.2176 10.9194 21.1485 10.8593 21.1034ZM12.2741 19.3793C12.2321 20.0731 12.202 20.8331 12.151 21.5239C12.2411 21.5239 12.3312 21.5239 12.4183 21.5239C12.3762 20.8751 12.3252 20.1572 12.2861 19.5084C12.2861 19.4664 12.2801 19.4213 12.2741 19.3793ZM14.6501 23.7617C12.7727 23.7617 10.8984 23.7647 9.02104 23.7617C8.30615 23.7587 7.6273 23.2901 7.34195 22.6353C7.2248 22.374 7.17674 22.0826 7.17674 21.7943C7.17674 15.5525 7.17674 9.31067 7.17674 3.06886C7.15872 2.70541 7.19176 2.32393 7.36297 1.99052C7.66335 1.3417 8.35121 0.90616 9.0631 0.909164C10.1384 0.912168 11.2108 0.891141 12.2861 0.921179C12.0308 1.00228 11.7725 1.15247 11.6674 1.41379C11.5652 1.68714 11.5592 1.98451 11.5442 2.27287C11.4391 2.28488 11.2919 2.2969 11.2949 2.43808C11.2919 2.63933 11.2709 2.91267 11.4721 3.02681C11.418 3.31217 11.4691 3.63958 11.2949 3.88589C11.0996 4.0541 10.8113 3.99702 10.574 4.03007C10.559 4.04809 10.5289 4.08413 10.5109 4.10216C10.2526 4.12318 9.99426 4.14421 9.74195 4.19527C9.51066 4.25234 9.30039 4.39052 9.1472 4.57074C8.89789 4.86511 8.71466 5.20754 8.53744 5.54996C8.33919 5.93144 8.24307 6.35497 8.04182 6.73344C7.75346 7.32218 7.4651 7.91993 7.31491 8.56273C7.28187 8.67687 7.33293 8.79102 7.36898 8.89915C7.42004 9.04033 7.44708 9.19052 7.50415 9.33169C7.76548 9.40979 8.04182 9.40078 8.31216 9.39177C8.31216 9.46686 8.31216 9.54195 8.30915 9.62005C8.19201 9.78526 7.99977 9.9024 7.9457 10.1097C7.84357 10.4821 7.77749 10.8666 7.74745 11.2511C7.77749 12.2183 8.51942 12.9512 8.73569 13.8644C8.90089 13.8914 9.0631 13.9244 9.2283 13.9395C9.6218 14.7084 10.1264 15.4143 10.6311 16.1112C10.8443 16.3725 11.0276 16.6609 11.2949 16.8711C11.5322 17.0724 11.7304 17.3097 11.9587 17.5199C12.4513 17.9825 12.971 18.4271 13.5597 18.7635C13.6528 18.9617 13.7429 19.163 13.806 19.3702C13.7429 19.4784 13.6829 19.6045 13.752 19.7277C13.9322 20.1542 14.2356 20.5267 14.3317 20.9893C14.3377 21.0944 14.2416 21.1965 14.2926 21.2987C14.3347 21.3798 14.3948 21.4458 14.4518 21.5149C14.4518 22.1037 14.2806 22.6864 14.3347 23.2781C14.3467 23.4854 14.5059 23.6326 14.6501 23.7617ZM9.83506 19.0969C9.68187 19.0969 9.52568 19.0969 9.37248 19.0969C9.37549 19.3913 9.36648 19.6856 9.3815 19.98C9.40853 20.6138 9.4626 21.2446 9.52267 21.8754C9.52568 21.8994 9.53168 21.9204 9.53469 21.9445C9.51366 21.8814 9.51066 21.8153 9.49864 21.7522C9.35146 20.8661 9.20728 19.983 9.06009 19.0969C8.81979 19.0969 8.5825 19.0969 8.3422 19.0969C8.3422 20.2563 8.3422 21.4188 8.33919 22.5813C8.49539 22.5813 8.64858 22.5813 8.80477 22.5813C8.80177 22.0376 8.81379 21.4939 8.79276 20.9532C8.78074 20.5808 8.76873 20.2053 8.73869 19.8328C8.78375 20.0731 8.81379 20.3134 8.85584 20.5537C8.96397 21.2296 9.06911 21.9054 9.17724 22.5813C9.39651 22.5813 9.61579 22.5813 9.83506 22.5813C9.83506 21.4188 9.83506 20.2594 9.83506 19.0969ZM11.4661 21.6231C11.4601 21.4518 11.4871 21.2776 11.421 21.1124C11.382 21.0103 11.3039 20.9232 11.2048 20.8631C11.388 20.764 11.4541 20.5657 11.4631 20.3855C11.4691 20.1782 11.4631 19.974 11.4661 19.7667C11.4631 19.5865 11.421 19.3973 11.2799 19.2591C11.1537 19.139 10.9645 19.0909 10.7842 19.0909C10.556 19.0939 10.3277 19.0939 10.0994 19.0939C10.0994 20.2563 10.0994 21.4158 10.0994 22.5783C10.3217 22.5783 10.5439 22.5783 10.7692 22.5783C10.9284 22.5783 11.0966 22.5422 11.2228 22.4491C11.3309 22.371 11.397 22.2599 11.4331 22.1457C11.4841 21.9745 11.4631 21.8003 11.4661 21.6231ZM13.0611 22.5783C12.9349 21.4158 12.8088 20.2563 12.6856 19.0939C12.4273 19.0939 12.175 19.0939 11.9227 19.0939C11.7965 20.2563 11.6674 21.4158 11.5412 22.5783C11.7214 22.5783 11.9016 22.5783 12.0789 22.5783C12.0939 22.35 12.1089 22.1517 12.1239 21.9234C12.2321 21.9234 12.3402 21.9234 12.4483 21.9234C12.4664 22.1517 12.4814 22.35 12.4994 22.5783C12.6856 22.5783 12.8749 22.5783 13.0611 22.5783Z" fill="#1C4588"/>
</g>
<defs>
<clipPath id="clip0_12_663">
<rect width="10.5522" height="24" fill="white" transform="translate(6.6001 0.332031)"/>
</clipPath>
</defs>
</svg>
