<svg xmlns="http://www.w3.org/2000/svg" viewBox="0 0 678.58 83.52"><defs><style>.cls-1{fill:#fff;}.cls-2{fill:red;}</style></defs><title>Sportradar_White</title><g id="Layer_2" data-name="Layer 2"><g id="Layer_1-2" data-name="Layer 1"><path class="cls-1" d="M0,50.74H7.41v2.32c0,5.83,3.05,8.24,11.2,8.24h17c12,0,15.74-.46,15.74-7.5v-.37c0-4.54-1.3-7-10.83-7H16C4.82,46.39.65,42.78.65,33.8V31c0-7.68,4.35-11.95,24-11.95H36.85c18,0,20.47,5.19,20.47,11.86v2.5H49.91V33c0-7.22-4.82-7.4-13.52-7.4H22.5C11.11,25.56,8.61,26.67,8.61,32V33.8c0,3.89,1.3,6.11,9.63,6.11h21c11.94,0,20.09,1.2,20.09,14v.19c0,13.24-12.22,13.7-21.94,13.7H22.78C11,67.78,0,67.78,0,53.61Z"/><path class="cls-1" d="M70.16,19.82h7.41v7.5h.19c2.31-5.74,8.79-8.24,15.83-8.24h15.09c11.3,0,21.86,3.61,21.86,19.9v8.34c0,15.27-6.76,20.46-23.15,20.46H92.2c-8.42,0-12.22-2.13-13.89-7h-.18V83.52h-8Zm52.41,19.26c0-9.17-3-13.52-14.16-13.52H92.57c-10.46,0-14.44,5.46-14.44,13.61v9c0,11.3,7,13.15,15.46,13.15h14.17c9.26,0,14.81-2,14.81-13Z"/><path class="cls-1" d="M231.49,19.82h7.41v6.85h.19c3-6.12,9-7.59,14.44-7.59H261c14.91,0,19.81,4.81,19.81,16.39v5.64h-7.41v-2c0-11.67-2.4-13.52-16.57-13.52H252c-8.42,0-12.5,5.37-12.5,11.48V67h-8Z"/><path class="cls-1" d="M297,26.3H286.61V19.81H297V8.61h8v11.2h31.58V26.3H304.94V49.82c0,8.79,3.06,11.48,11.76,11.48h2.5c10.56,0,12.23-2.23,12.23-12.13V45.65h6.48v5.19c0,9.44-.92,16.94-18.15,16.94H315.4c-14.9,0-18.42-7.22-18.42-14.91Z"/><path class="cls-1" d="M348.07,19.82h16.67v9h.18c2-7.5,9.26-9.72,17.32-9.72,13,0,18.05,5.55,18.05,18.61,0,1.2-.09,2.5-.19,4.16H384.74c0-6-1.39-8.89-8.52-8.89-6.11,0-10.38,2.32-10.38,8V67H348.07Z"/><path class="cls-1" d="M406.86,50.47c0-12.87,8.89-13.62,26.12-13.62,9.72,0,15.09.28,18.51,3.8V36.48c0-4.63-1.39-6.29-8.33-6.29H432.7c-5.19,0-6.67.46-6.85,3.79H408.62c0-12.77,6.3-14.91,21.3-14.91h20.65c12.22,0,18.7,5.84,18.7,17V67H452.42V61.67c-4.91,5.09-6.76,6.11-15.65,6.11H424.64c-10.83.09-17.78-2.32-17.78-13.43Zm31.67,6.2c12.22,0,13.34-1.85,13.34-5,0-3.52-1-4.82-10.84-4.82h-7.87c-7.5,0-9.07,1.67-9.07,5.56,0,3.05,2.41,4.26,9.35,4.26Z"/><path class="cls-1" d="M478.24,39.17c0-12,2.78-20.09,25.29-20.09h5.27c7.32,0,14.82,2,15.93,9.44h.18V0h17.78V67H526V58.33h-.18c-2,5.84-6.39,9.45-17.13,9.45h-5.18c-22.51,0-25.29-8.05-25.29-20.09Zm17.23,7c0,5.28.83,8.25,9.35,8.25h10.46c7,0,10.74-1.58,10.74-8.71V41.11c0-7.13-3.7-8.7-10.74-8.7H504.82c-8.52,0-9.35,3-9.35,8.24Z"/><path class="cls-1" d="M552.55,50.47c0-12.87,8.89-13.62,26.11-13.62,9.73,0,15.1.28,18.53,3.8V36.48c0-4.63-1.39-6.29-8.34-6.29H578.39c-5.19,0-6.67.46-6.86,3.79H554.31c0-12.77,6.3-14.91,21.3-14.91h20.65c12.22,0,18.7,5.84,18.7,17V67H598.11V61.67c-4.91,5.09-6.76,6.11-15.65,6.11H570.33c-10.83.09-17.78-2.32-17.78-13.43Zm31.67,6.2c12.22,0,13.33-1.85,13.33-5,0-3.52-1-4.82-10.83-4.82h-7.87c-7.5,0-9.08,1.67-9.08,5.56,0,3.05,2.41,4.26,9.36,4.26Z"/><path class="cls-1" d="M626.35,19.82H643v9h.18c2-7.5,9.26-9.72,17.32-9.72,13,0,18.06,5.55,18.06,18.61,0,1.2-.1,2.5-.19,4.16H663c0-6-1.39-8.89-8.52-8.89-6.11,0-10.37,2.32-10.37,8V67H626.35Z"/><path class="cls-2" d="M188.61,25.45h-16.2c-9.26,0-15.74,2.13-15.74,13.15v9.45c0,11,6.48,13.15,15.74,13.15h16.2c9.26,0,15.74-2.13,15.74-13.15V38.6c0-11-6.48-13.15-15.74-13.15"/><path class="cls-2" d="M187.79,12.19H173.23c-19.3,0-33.39,4.61-33.39,24.5V50c0,19.9,14.09,24.51,33.39,24.51h14.56c19.3,0,33.39-4.61,33.39-24.51V36.69c0-19.89-14.09-24.5-33.39-24.5m24.53,36.32c0,15.56-11,19.16-26.11,19.16h-11.4c-15.09,0-26.11-3.6-26.11-19.16V38.14c0-15.55,11-19.17,26.11-19.17h11.4c15.09,0,26.11,3.62,26.11,19.17Z"/><path class="cls-1" d="M0,50.74H7.41v2.32c0,5.83,3.05,8.24,11.2,8.24h17c12,0,15.74-.46,15.74-7.5v-.37c0-4.54-1.3-7-10.83-7H16C4.82,46.39.65,42.78.65,33.8V31c0-7.68,4.35-11.95,24-11.95H36.85c18,0,20.47,5.19,20.47,11.86v2.5H49.91V33c0-7.22-4.82-7.4-13.52-7.4H22.5C11.11,25.56,8.61,26.67,8.61,32V33.8c0,3.89,1.3,6.11,9.63,6.11h21c11.94,0,20.09,1.2,20.09,14v.19c0,13.24-12.22,13.7-21.94,13.7H22.78C11,67.78,0,67.78,0,53.61Z"/><path class="cls-1" d="M70.16,19.82h7.41v7.5h.19c2.31-5.74,8.79-8.24,15.83-8.24h15.09c11.3,0,21.86,3.61,21.86,19.9v8.34c0,15.27-6.76,20.46-23.15,20.46H92.2c-8.42,0-12.22-2.13-13.89-7h-.18V83.52h-8Zm52.41,19.26c0-9.17-3-13.52-14.16-13.52H92.57c-10.46,0-14.44,5.46-14.44,13.61v9c0,11.3,7,13.15,15.46,13.15h14.17c9.26,0,14.81-2,14.81-13Z"/><path class="cls-1" d="M231.49,19.82h7.41v6.85h.19c3-6.12,9-7.59,14.44-7.59H261c14.91,0,19.81,4.81,19.81,16.39v5.64h-7.41v-2c0-11.67-2.4-13.52-16.57-13.52H252c-8.42,0-12.5,5.37-12.5,11.48V67h-8Z"/><path class="cls-1" d="M297,26.3H286.61V19.81H297V8.61h8v11.2h31.58V26.3H304.94V49.82c0,8.79,3.06,11.48,11.76,11.48h2.5c10.56,0,12.23-2.23,12.23-12.13V45.65h6.48v5.19c0,9.44-.92,16.94-18.15,16.94H315.4c-14.9,0-18.42-7.22-18.42-14.91Z"/><path class="cls-1" d="M348.07,19.82h16.67v9h.18c2-7.5,9.26-9.72,17.32-9.72,13,0,18.05,5.55,18.05,18.61,0,1.2-.09,2.5-.19,4.16H384.74c0-6-1.39-8.89-8.52-8.89-6.11,0-10.38,2.32-10.38,8V67H348.07Z"/><path class="cls-1" d="M406.86,50.47c0-12.87,8.89-13.62,26.12-13.62,9.72,0,15.09.28,18.51,3.8V36.48c0-4.63-1.39-6.29-8.33-6.29H432.7c-5.19,0-6.67.46-6.85,3.79H408.62c0-12.77,6.3-14.91,21.3-14.91h20.65c12.22,0,18.7,5.84,18.7,17V67H452.42V61.67c-4.91,5.09-6.76,6.11-15.65,6.11H424.64c-10.83.09-17.78-2.32-17.78-13.43Zm31.67,6.2c12.22,0,13.34-1.85,13.34-5,0-3.52-1-4.82-10.84-4.82h-7.87c-7.5,0-9.07,1.67-9.07,5.56,0,3.05,2.41,4.26,9.35,4.26Z"/><path class="cls-1" d="M478.24,39.17c0-12,2.78-20.09,25.29-20.09h5.27c7.32,0,14.82,2,15.93,9.44h.18V0h17.78V67H526V58.33h-.18c-2,5.84-6.39,9.45-17.13,9.45h-5.18c-22.51,0-25.29-8.05-25.29-20.09Zm17.23,7c0,5.28.83,8.25,9.35,8.25h10.46c7,0,10.74-1.58,10.74-8.71V41.11c0-7.13-3.7-8.7-10.74-8.7H504.82c-8.52,0-9.35,3-9.35,8.24Z"/><path class="cls-1" d="M552.55,50.47c0-12.87,8.89-13.62,26.11-13.62,9.73,0,15.1.28,18.53,3.8V36.48c0-4.63-1.39-6.29-8.34-6.29H578.39c-5.19,0-6.67.46-6.86,3.79H554.31c0-12.77,6.3-14.91,21.3-14.91h20.65c12.22,0,18.7,5.84,18.7,17V67H598.11V61.67c-4.91,5.09-6.76,6.11-15.65,6.11H570.33c-10.83.09-17.78-2.32-17.78-13.43Zm31.67,6.2c12.22,0,13.33-1.85,13.33-5,0-3.52-1-4.82-10.83-4.82h-7.87c-7.5,0-9.08,1.67-9.08,5.56,0,3.05,2.41,4.26,9.36,4.26Z"/><path class="cls-1" d="M626.35,19.82H643v9h.18c2-7.5,9.26-9.72,17.32-9.72,13,0,18.06,5.55,18.06,18.61,0,1.2-.1,2.5-.19,4.16H663c0-6-1.39-8.89-8.52-8.89-6.11,0-10.37,2.32-10.37,8V67H626.35Z"/><path class="cls-2" d="M188.61,25.45h-16.2c-9.26,0-15.74,2.13-15.74,13.15v9.45c0,11,6.48,13.15,15.74,13.15h16.2c9.26,0,15.74-2.13,15.74-13.15V38.6c0-11-6.48-13.15-15.74-13.15"/><path class="cls-2" d="M187.79,12.19H173.23c-19.3,0-33.39,4.61-33.39,24.5V50c0,19.9,14.09,24.51,33.39,24.51h14.56c19.3,0,33.39-4.61,33.39-24.51V36.69c0-19.89-14.09-24.5-33.39-24.5m24.53,36.32c0,15.56-11,19.16-26.11,19.16h-11.4c-15.09,0-26.11-3.6-26.11-19.16V38.14c0-15.55,11-19.17,26.11-19.17h11.4c15.09,0,26.11,3.62,26.11,19.17Z"/></g></g></svg>