<svg width="215" height="24" viewBox="0 0 215 24" fill="none" xmlns="http://www.w3.org/2000/svg">
<path d="M0 13.8527H1.52883V14.3314C1.52883 15.5342 2.1581 16.0314 3.8396 16.0314H7.34703C9.82286 16.0314 10.5945 15.9365 10.5945 14.484V14.4077C10.5945 13.471 10.3263 12.9635 8.36006 12.9635H3.30111C0.994459 12.9552 0.134108 12.2104 0.134108 10.3577V9.77997C0.134108 8.19544 1.0316 7.31445 5.08577 7.31445H7.60286C11.3166 7.31445 11.8262 8.38525 11.8262 9.7614V10.2772H10.2974V10.1926C10.2974 8.70298 9.30294 8.66584 7.50796 8.66584H4.64218C2.29221 8.65759 1.77641 8.88661 1.77641 9.98629V10.3577C1.77641 11.1602 2.04462 11.6183 3.76326 11.6183H8.09597C10.5594 11.6183 12.2409 11.8659 12.2409 14.5067V14.5459C12.2409 17.2776 9.7197 17.3725 7.71428 17.3725H4.69995C2.26951 17.3684 0 17.3684 0 14.4448V13.8527Z" fill="white"/>
<path d="M14.4754 7.47335H16.0042V9.02075H16.0434C16.52 7.83648 17.8569 7.32068 19.3094 7.32068H22.4228C24.7542 7.32068 26.9329 8.06549 26.9329 11.4264V13.1471C26.9329 16.2976 25.5382 17.3684 22.1566 17.3684H19.0226C17.2854 17.3684 16.5014 16.929 16.1569 15.9242H16.1197V20.6159H14.4692L14.4754 7.47335ZM25.2886 11.4471C25.2886 9.55512 24.6696 8.65763 22.3671 8.65763H19.099C16.9409 8.65763 16.1197 9.78413 16.1197 11.4656V13.3225C16.1197 15.6539 17.564 16.0356 19.3094 16.0356H22.233C24.1435 16.0356 25.2886 15.623 25.2886 13.3535V11.4471Z" fill="white"/>
<path d="M47.7609 7.47335H49.2897V8.88664H49.3289C49.9478 7.62397 51.1858 7.32068 52.3081 7.32068H53.8493C56.9256 7.32068 57.9365 8.31307 57.9365 10.7023V11.8659H56.4077V11.4533C56.4077 9.04551 55.9125 8.66382 52.989 8.66382H51.9925C50.2553 8.66382 49.4135 9.77175 49.4135 11.0324V17.2075H47.7629L47.7609 7.47335Z" fill="white"/>
<path d="M61.2768 8.81031H59.1332V7.4713H61.2768V5.16052H62.9274V7.4713H69.443V8.81031H62.915V13.6629C62.915 15.4765 63.5464 16.0315 65.3413 16.0315H65.8571C68.0359 16.0315 68.3804 15.5714 68.3804 13.5288V12.8026H69.7174V13.8734C69.7174 15.821 69.5275 17.3684 65.9727 17.3684H65.0731C61.999 17.3684 61.2727 15.8788 61.2727 14.2922L61.2768 8.81031Z" fill="white"/>
<path d="M71.8135 7.47338H75.2529V9.33025H75.29C75.7027 7.78286 77.2005 7.32483 78.8635 7.32483C81.5456 7.32483 82.5875 8.4699 82.5875 11.1644C82.5875 11.412 82.569 11.6802 82.5483 12.0227H79.3793C79.3793 10.7848 79.0925 10.1885 77.6214 10.1885C76.3608 10.1885 75.4798 10.6672 75.4798 11.8391V17.2075H71.8135V7.47338Z" fill="white"/>
<path d="M83.9431 13.797C83.9431 11.1417 85.7772 10.987 89.3321 10.987C91.3375 10.987 92.4455 11.0447 93.1511 11.771V10.9106C93.1511 9.95536 92.8643 9.61287 91.4324 9.61287H89.2743C88.2036 9.61287 87.8982 9.70778 87.8611 10.3948H84.3062C84.3062 7.76013 85.606 7.3186 88.7008 7.3186H92.9613C95.4825 7.3186 96.8194 8.52351 96.8194 10.826V17.2075H93.343V16.1078C92.3299 17.158 91.9482 17.3684 90.1141 17.3684H87.6114C85.377 17.387 83.9431 16.8898 83.9431 14.5975V13.797ZM90.4772 15.0762C92.9984 15.0762 93.2295 14.6945 93.2295 14.0446C93.2295 13.3184 93.0232 13.0502 90.993 13.0502H89.3693C87.8219 13.0502 87.4979 13.3947 87.4979 14.1973C87.4979 14.8266 87.9952 15.0762 89.427 15.0762H90.4772Z" fill="white"/>
<path d="M98.6701 11.4657C98.6701 8.98985 99.2437 7.32073 103.888 7.32073H104.975C106.486 7.32073 108.033 7.73337 108.262 9.26838H108.299V3.38416H111.967V17.2075H108.524V15.4188H108.487C108.074 16.6237 107.168 17.3685 104.953 17.3685H103.884C99.2396 17.3685 98.666 15.7076 98.666 13.2235L98.6701 11.4657ZM102.225 12.9099C102.225 13.9993 102.396 14.6121 104.154 14.6121H106.312C107.756 14.6121 108.528 14.2861 108.528 12.815V11.8659C108.528 10.3949 107.765 10.071 106.312 10.071H104.154C102.396 10.071 102.225 10.6899 102.225 11.771V12.9099Z" fill="white"/>
<path d="M114.002 13.797C114.002 11.1417 115.836 10.987 119.389 10.987C121.396 10.987 122.504 11.0447 123.212 11.771V10.9106C123.212 9.95536 122.925 9.61287 121.491 9.61287H119.333C118.262 9.61287 117.957 9.70778 117.918 10.3948H114.365C114.365 7.76013 115.665 7.3186 118.759 7.3186H123.02C125.541 7.3186 126.878 8.52351 126.878 10.826V17.2075H123.402V16.1078C122.389 17.158 122.007 17.3684 120.173 17.3684H117.67C115.436 17.387 114.002 16.8898 114.002 14.5975V13.797ZM120.536 15.0762C123.057 15.0762 123.286 14.6945 123.286 14.0446C123.286 13.3184 123.08 13.0502 121.052 13.0502H119.428C117.881 13.0502 117.555 13.3947 117.555 14.1973C117.555 14.8266 118.052 15.0762 119.486 15.0762H120.536Z" fill="white"/>
<path d="M129.228 7.47338H132.663V9.33025H132.7C133.113 7.78286 134.611 7.32483 136.274 7.32483C138.956 7.32483 140 8.4699 140 11.1644C140 11.412 139.979 11.6802 139.961 12.0227H136.79C136.79 10.7848 136.503 10.1885 135.032 10.1885C133.771 10.1885 132.892 10.6672 132.892 11.8391V17.2075H129.228V7.47338Z" fill="white"/>
<path d="M38.9139 8.63489H35.5715C33.661 8.63489 32.324 9.07435 32.324 11.348V13.2977C32.324 15.5672 33.661 16.0108 35.5715 16.0108H38.9139C40.8244 16.0108 42.1613 15.5713 42.1613 13.2977V11.348C42.1613 9.07847 40.8244 8.63489 38.9139 8.63489Z" fill="#FF0000"/>
<path d="M38.7447 5.89917H35.7407C31.7587 5.89917 28.8517 6.8503 28.8517 10.954V13.7001C28.8517 17.8059 31.7587 18.757 35.7407 18.757H38.7447C42.7267 18.757 45.6337 17.8059 45.6337 13.7001V10.954C45.6337 6.8503 42.7267 5.89917 38.7447 5.89917ZM43.8057 13.3927C43.8057 16.603 41.5362 17.3458 38.4187 17.3458H36.0667C32.9533 17.3458 30.6797 16.603 30.6797 13.3927V11.2532C30.6797 8.04489 32.9492 7.29801 36.0667 7.29801H38.4187C41.5321 7.29801 43.8057 8.04489 43.8057 11.2532V13.3927Z" fill="#FF0000"/>
<path d="M0 13.8527H1.52883V14.3314C1.52883 15.5342 2.1581 16.0314 3.8396 16.0314H7.34703C9.82286 16.0314 10.5945 15.9365 10.5945 14.484V14.4077C10.5945 13.471 10.3263 12.9635 8.36006 12.9635H3.30111C0.994459 12.9552 0.134108 12.2104 0.134108 10.3577V9.77997C0.134108 8.19544 1.0316 7.31445 5.08577 7.31445H7.60286C11.3166 7.31445 11.8262 8.38525 11.8262 9.7614V10.2772H10.2974V10.1926C10.2974 8.70298 9.30294 8.66584 7.50796 8.66584H4.64218C2.29221 8.65759 1.77641 8.88661 1.77641 9.98629V10.3577C1.77641 11.1602 2.04462 11.6183 3.76326 11.6183H8.09597C10.5594 11.6183 12.2409 11.8659 12.2409 14.5067V14.5459C12.2409 17.2776 9.7197 17.3725 7.71428 17.3725H4.69995C2.26951 17.3684 0 17.3684 0 14.4448V13.8527Z" fill="white"/>
<path d="M14.4754 7.47335H16.0042V9.02075H16.0434C16.52 7.83648 17.8569 7.32068 19.3094 7.32068H22.4228C24.7542 7.32068 26.9329 8.06549 26.9329 11.4264V13.1471C26.9329 16.2976 25.5382 17.3684 22.1566 17.3684H19.0226C17.2854 17.3684 16.5014 16.929 16.1569 15.9242H16.1197V20.6159H14.4692L14.4754 7.47335ZM25.2886 11.4471C25.2886 9.55512 24.6696 8.65763 22.3671 8.65763H19.099C16.9409 8.65763 16.1197 9.78413 16.1197 11.4656V13.3225C16.1197 15.6539 17.564 16.0356 19.3094 16.0356H22.233C24.1435 16.0356 25.2886 15.623 25.2886 13.3535V11.4471Z" fill="white"/>
<path d="M47.7609 7.47335H49.2897V8.88664H49.3289C49.9478 7.62397 51.1858 7.32068 52.3081 7.32068H53.8493C56.9256 7.32068 57.9365 8.31307 57.9365 10.7023V11.8659H56.4077V11.4533C56.4077 9.04551 55.9125 8.66382 52.989 8.66382H51.9925C50.2553 8.66382 49.4135 9.77175 49.4135 11.0324V17.2075H47.7629L47.7609 7.47335Z" fill="white"/>
<path d="M61.2768 8.81031H59.1332V7.4713H61.2768V5.16052H62.9274V7.4713H69.443V8.81031H62.915V13.6629C62.915 15.4765 63.5464 16.0315 65.3413 16.0315H65.8571C68.0359 16.0315 68.3804 15.5714 68.3804 13.5288V12.8026H69.7174V13.8734C69.7174 15.821 69.5275 17.3684 65.9727 17.3684H65.0731C61.999 17.3684 61.2727 15.8788 61.2727 14.2922L61.2768 8.81031Z" fill="white"/>
<path d="M71.8135 7.47338H75.2529V9.33025H75.29C75.7027 7.78286 77.2005 7.32483 78.8635 7.32483C81.5456 7.32483 82.5875 8.4699 82.5875 11.1644C82.5875 11.412 82.569 11.6802 82.5483 12.0227H79.3793C79.3793 10.7848 79.0925 10.1885 77.6214 10.1885C76.3608 10.1885 75.4798 10.6672 75.4798 11.8391V17.2075H71.8135V7.47338Z" fill="white"/>
<path d="M83.9431 13.797C83.9431 11.1417 85.7772 10.987 89.3321 10.987C91.3375 10.987 92.4455 11.0447 93.1511 11.771V10.9106C93.1511 9.95536 92.8643 9.61287 91.4324 9.61287H89.2743C88.2036 9.61287 87.8982 9.70778 87.8611 10.3948H84.3062C84.3062 7.76013 85.606 7.3186 88.7008 7.3186H92.9613C95.4825 7.3186 96.8194 8.52351 96.8194 10.826V17.2075H93.343V16.1078C92.3299 17.158 91.9482 17.3684 90.1141 17.3684H87.6114C85.377 17.387 83.9431 16.8898 83.9431 14.5975V13.797ZM90.4772 15.0762C92.9984 15.0762 93.2295 14.6945 93.2295 14.0446C93.2295 13.3184 93.0232 13.0502 90.993 13.0502H89.3693C87.8219 13.0502 87.4979 13.3947 87.4979 14.1973C87.4979 14.8266 87.9952 15.0762 89.427 15.0762H90.4772Z" fill="white"/>
<path d="M98.6701 11.4657C98.6701 8.98985 99.2437 7.32073 103.888 7.32073H104.975C106.486 7.32073 108.033 7.73337 108.262 9.26838H108.299V3.38416H111.967V17.2075H108.524V15.4188H108.487C108.074 16.6237 107.168 17.3685 104.953 17.3685H103.884C99.2396 17.3685 98.666 15.7076 98.666 13.2235L98.6701 11.4657ZM102.225 12.9099C102.225 13.9993 102.396 14.6121 104.154 14.6121H106.312C107.756 14.6121 108.528 14.2861 108.528 12.815V11.8659C108.528 10.3949 107.765 10.071 106.312 10.071H104.154C102.396 10.071 102.225 10.6899 102.225 11.771V12.9099Z" fill="white"/>
<path d="M114.002 13.797C114.002 11.1417 115.836 10.987 119.389 10.987C121.396 10.987 122.504 11.0447 123.212 11.771V10.9106C123.212 9.95536 122.925 9.61287 121.491 9.61287H119.333C118.262 9.61287 117.957 9.70778 117.918 10.3948H114.365C114.365 7.76013 115.665 7.3186 118.759 7.3186H123.02C125.541 7.3186 126.878 8.52351 126.878 10.826V17.2075H123.402V16.1078C122.389 17.158 122.007 17.3684 120.173 17.3684H117.67C115.436 17.387 114.002 16.8898 114.002 14.5975V13.797ZM120.536 15.0762C123.057 15.0762 123.286 14.6945 123.286 14.0446C123.286 13.3184 123.08 13.0502 121.052 13.0502H119.428C117.881 13.0502 117.555 13.3947 117.555 14.1973C117.555 14.8266 118.052 15.0762 119.486 15.0762H120.536Z" fill="white"/>
<path d="M129.228 7.47338H132.663V9.33025H132.7C133.113 7.78286 134.611 7.32483 136.274 7.32483C138.956 7.32483 140 8.4699 140 11.1644C140 11.412 139.979 11.6802 139.961 12.0227H136.79C136.79 10.7848 136.503 10.1885 135.032 10.1885C133.771 10.1885 132.892 10.6672 132.892 11.8391V17.2075H129.228V7.47338Z" fill="white"/>
<path d="M38.9139 8.63489H35.5715C33.661 8.63489 32.324 9.07435 32.324 11.348V13.2977C32.324 15.5672 33.661 16.0108 35.5715 16.0108H38.9139C40.8244 16.0108 42.1613 15.5713 42.1613 13.2977V11.348C42.1613 9.07847 40.8244 8.63489 38.9139 8.63489Z" fill="#FF0000"/>
<path d="M38.7447 5.89917H35.7407C31.7587 5.89917 28.8517 6.8503 28.8517 10.954V13.7001C28.8517 17.8059 31.7587 18.757 35.7407 18.757H38.7447C42.7267 18.757 45.6337 17.8059 45.6337 13.7001V10.954C45.6337 6.8503 42.7267 5.89917 38.7447 5.89917ZM43.8057 13.3927C43.8057 16.603 41.5362 17.3458 38.4187 17.3458H36.0667C32.9533 17.3458 30.6797 16.603 30.6797 13.3927V11.2532C30.6797 8.04489 32.9492 7.29801 36.0667 7.29801H38.4187C41.5321 7.29801 43.8057 8.04489 43.8057 11.2532V13.3927Z" fill="#FF0000"/>
<rect x="148" width="66.8506" height="24" rx="3" fill="#3F51B5"/>
<path d="M158.848 17.204C158.187 17.204 157.563 17.092 156.976 16.868C156.389 16.6334 155.872 16.292 155.424 15.844C154.987 15.396 154.64 14.8414 154.384 14.18C154.128 13.508 154 12.7347 154 11.86C154 10.996 154.133 10.228 154.4 9.55602C154.667 8.87335 155.024 8.29735 155.472 7.82802C155.92 7.35869 156.443 7.00135 157.04 6.75602C157.637 6.51069 158.267 6.38802 158.928 6.38802C159.6 6.38802 160.203 6.52669 160.736 6.80402C161.269 7.07069 161.712 7.38535 162.064 7.74802L160.816 9.25202C160.549 9.00669 160.267 8.80935 159.968 8.66002C159.68 8.50002 159.349 8.42002 158.976 8.42002C158.624 8.42002 158.288 8.50002 157.968 8.66002C157.659 8.80935 157.387 9.02802 157.152 9.31602C156.928 9.60402 156.747 9.95602 156.608 10.372C156.48 10.788 156.416 11.2574 156.416 11.78C156.416 12.8574 156.645 13.6947 157.104 14.292C157.563 14.8787 158.176 15.172 158.944 15.172C159.371 15.172 159.749 15.0814 160.08 14.9C160.421 14.708 160.72 14.4734 160.976 14.196L162.224 15.668C161.349 16.692 160.224 17.204 158.848 17.204Z" fill="white"/>
<path d="M167.024 17.204C166.523 17.204 166.038 17.1134 165.569 16.932C165.099 16.74 164.683 16.468 164.321 16.116C163.969 15.764 163.686 15.332 163.472 14.82C163.259 14.2974 163.153 13.7054 163.153 13.044C163.153 12.3827 163.259 11.796 163.472 11.284C163.686 10.7614 163.969 10.324 164.321 9.97202C164.683 9.62002 165.099 9.35335 165.569 9.17202C166.038 8.98002 166.523 8.88402 167.024 8.88402C167.526 8.88402 168.006 8.98002 168.465 9.17202C168.934 9.35335 169.345 9.62002 169.697 9.97202C170.059 10.324 170.347 10.7614 170.561 11.284C170.774 11.796 170.881 12.3827 170.881 13.044C170.881 13.7054 170.774 14.2974 170.561 14.82C170.347 15.332 170.059 15.764 169.697 16.116C169.345 16.468 168.934 16.74 168.465 16.932C168.006 17.1134 167.526 17.204 167.024 17.204ZM167.024 15.3C167.504 15.3 167.867 15.0974 168.113 14.692C168.358 14.2867 168.481 13.7374 168.481 13.044C168.481 12.3507 168.358 11.8014 168.113 11.396C167.867 10.9907 167.504 10.788 167.024 10.788C166.534 10.788 166.166 10.9907 165.92 11.396C165.686 11.8014 165.569 12.3507 165.569 13.044C165.569 13.7374 165.686 14.2867 165.92 14.692C166.166 15.0974 166.534 15.3 167.024 15.3Z" fill="white"/>
<path d="M172.492 17.012V9.07602H174.411L174.572 10.084H174.635C174.977 9.76402 175.35 9.48669 175.756 9.25202C176.161 9.00669 176.636 8.88402 177.18 8.88402C178.044 8.88402 178.668 9.16669 179.052 9.73202C179.446 10.2974 179.644 11.0814 179.644 12.084V17.012H177.292V12.388C177.292 11.812 177.212 11.4174 177.052 11.204C176.902 10.9907 176.657 10.884 176.316 10.884C176.017 10.884 175.761 10.9534 175.548 11.092C175.334 11.22 175.1 11.4067 174.844 11.652V17.012H172.492Z" fill="white"/>
<path d="M183.984 17.204C183.461 17.204 182.922 17.1027 182.368 16.9C181.824 16.6974 181.349 16.4307 180.944 16.1L182 14.628C182.362 14.9054 182.709 15.1134 183.04 15.252C183.37 15.3907 183.706 15.46 184.048 15.46C184.4 15.46 184.656 15.4014 184.816 15.284C184.976 15.1667 185.056 15.0014 185.056 14.788C185.056 14.66 185.008 14.548 184.912 14.452C184.826 14.3454 184.704 14.2494 184.544 14.164C184.394 14.0787 184.224 14.004 184.032 13.94C183.84 13.8654 183.642 13.7854 183.44 13.7C183.194 13.604 182.949 13.492 182.704 13.364C182.458 13.236 182.234 13.0814 182.032 12.9C181.829 12.708 181.664 12.4894 181.536 12.244C181.408 11.988 181.344 11.6947 181.344 11.364C181.344 11.0014 181.413 10.6654 181.552 10.356C181.701 10.0467 181.909 9.78535 182.176 9.57202C182.442 9.35869 182.762 9.19335 183.136 9.07602C183.509 8.94802 183.925 8.88402 184.384 8.88402C184.992 8.88402 185.525 8.99069 185.984 9.20402C186.442 9.40669 186.842 9.63602 187.184 9.89202L186.128 11.3C185.84 11.0867 185.557 10.9214 185.28 10.804C185.002 10.6867 184.725 10.628 184.448 10.628C183.85 10.628 183.552 10.836 183.552 11.252C183.552 11.38 183.594 11.492 183.68 11.588C183.765 11.6734 183.877 11.7534 184.016 11.828C184.165 11.9027 184.33 11.9774 184.512 12.052C184.704 12.116 184.901 12.1854 185.104 12.26C185.36 12.356 185.61 12.468 185.856 12.596C186.112 12.7134 186.341 12.8627 186.544 13.044C186.757 13.2254 186.928 13.4494 187.056 13.716C187.184 13.972 187.248 14.2814 187.248 14.644C187.248 15.0067 187.178 15.3427 187.04 15.652C186.901 15.9614 186.693 16.2334 186.416 16.468C186.138 16.692 185.797 16.8734 185.392 17.012C184.986 17.14 184.517 17.204 183.984 17.204Z" fill="white"/>
<path d="M192.15 17.204C191.648 17.204 191.163 17.1134 190.694 16.932C190.224 16.74 189.808 16.468 189.445 16.116C189.093 15.764 188.811 15.332 188.597 14.82C188.384 14.2974 188.278 13.7054 188.278 13.044C188.278 12.3827 188.384 11.796 188.597 11.284C188.811 10.7614 189.093 10.324 189.445 9.97202C189.808 9.62002 190.224 9.35335 190.694 9.17202C191.163 8.98002 191.648 8.88402 192.15 8.88402C192.651 8.88402 193.131 8.98002 193.59 9.17202C194.059 9.35335 194.469 9.62002 194.821 9.97202C195.184 10.324 195.472 10.7614 195.686 11.284C195.899 11.796 196.006 12.3827 196.006 13.044C196.006 13.7054 195.899 14.2974 195.686 14.82C195.472 15.332 195.184 15.764 194.821 16.116C194.469 16.468 194.059 16.74 193.59 16.932C193.131 17.1134 192.651 17.204 192.15 17.204ZM192.15 15.3C192.63 15.3 192.992 15.0974 193.237 14.692C193.483 14.2867 193.605 13.7374 193.605 13.044C193.605 12.3507 193.483 11.8014 193.237 11.396C192.992 10.9907 192.63 10.788 192.15 10.788C191.659 10.788 191.291 10.9907 191.046 11.396C190.811 11.8014 190.694 12.3507 190.694 13.044C190.694 13.7374 190.811 14.2867 191.046 14.692C191.291 15.0974 191.659 15.3 192.15 15.3Z" fill="white"/>
<path d="M199.777 17.204C199.371 17.204 199.03 17.14 198.752 17.012C198.475 16.884 198.251 16.708 198.081 16.484C197.921 16.2494 197.803 15.972 197.729 15.652C197.654 15.3214 197.617 14.9534 197.617 14.548V5.79602H199.968V14.644C199.968 14.8894 200.011 15.06 200.097 15.156C200.193 15.252 200.288 15.3 200.384 15.3C200.438 15.3 200.481 15.3 200.513 15.3C200.555 15.3 200.609 15.2894 200.673 15.268L200.96 17.012C200.832 17.0654 200.667 17.108 200.465 17.14C200.273 17.1827 200.043 17.204 199.777 17.204Z" fill="white"/>
<path d="M205.747 17.204C205.181 17.204 204.653 17.1134 204.163 16.932C203.672 16.74 203.245 16.468 202.883 16.116C202.52 15.7534 202.237 15.316 202.035 14.804C201.832 14.292 201.731 13.7054 201.731 13.044C201.731 12.404 201.837 11.828 202.051 11.316C202.264 10.7934 202.541 10.356 202.883 10.004C203.235 9.64135 203.635 9.36402 204.083 9.17202C204.531 8.98002 204.995 8.88402 205.475 8.88402C206.04 8.88402 206.531 8.98002 206.947 9.17202C207.373 9.36402 207.725 9.63069 208.003 9.97202C208.291 10.3134 208.504 10.7187 208.643 11.188C208.781 11.6467 208.851 12.148 208.851 12.692C208.851 12.9054 208.84 13.108 208.819 13.3C208.797 13.492 208.776 13.636 208.755 13.732H204.003C204.109 14.308 204.344 14.7347 204.707 15.012C205.08 15.2787 205.533 15.412 206.067 15.412C206.632 15.412 207.203 15.236 207.779 14.884L208.563 16.308C208.157 16.5854 207.704 16.804 207.203 16.964C206.712 17.124 206.227 17.204 205.747 17.204ZM203.987 12.18H206.851C206.851 11.732 206.749 11.3694 206.547 11.092C206.344 10.8147 206.003 10.676 205.523 10.676C205.149 10.676 204.819 10.7987 204.531 11.044C204.253 11.2894 204.072 11.668 203.987 12.18Z" fill="white"/>
</svg>
