<svg width="24" height="25" viewBox="0 0 24 25" fill="none" xmlns="http://www.w3.org/2000/svg">
<path d="M15.6926 7.13833C16.0446 6.55934 16.6803 6.17334 17.4069 6.17334C18.5081 6.17334 19.405 7.07022 19.405 8.17145C19.405 9.27268 18.9055 9.70409 18.1789 10.0106" stroke="#283593" stroke-width="0.908231" stroke-miterlimit="10"/>
<path d="M9.93652 7.62651C10.1749 6.7864 10.9469 6.17334 11.8665 6.17334C12.7861 6.17334 13.6376 6.85451 13.8192 7.7741" stroke="#283593" stroke-width="0.908231" stroke-miterlimit="10"/>
<path d="M5.65666 10.0218C4.88466 9.74938 4.32837 9.01144 4.32837 8.13727C4.32837 7.2631 5.22525 6.13916 6.32648 6.13916C7.42771 6.13916 7.67747 6.52516 8.02941 7.0928" stroke="#283593" stroke-width="0.908231" stroke-miterlimit="10"/>
<path d="M13.3765 9.26114C13.7284 8.70485 14.3528 8.34155 15.0567 8.34155C16.1579 8.34155 17.0548 9.23843 17.0548 10.3397C17.0548 11.4409 16.1579 12.3378 15.0567 12.3378C13.9555 12.3378 14.9545 12.3378 14.9091 12.3378" stroke="#283593" stroke-width="0.908231" stroke-miterlimit="10"/>
<path d="M9.10786 12.3151C8.99433 12.3378 8.89215 12.3378 8.77862 12.3378C7.6774 12.3378 6.78052 11.4409 6.78052 10.3397C6.78052 9.23843 7.6774 8.34155 8.77862 8.34155C9.87985 8.34155 10.1296 8.72755 10.4816 9.2952" stroke="#283593" stroke-width="0.908231" stroke-miterlimit="10"/>
<path d="M20.7899 13.4162C20.7899 11.7814 19.6886 10.4077 18.1787 9.99902" stroke="#283593" stroke-width="0.908231" stroke-miterlimit="10"/>
<path d="M15.0454 12.3491C16.9981 12.3491 18.5875 13.9385 18.5875 15.8912" stroke="#283593" stroke-width="0.908231" stroke-miterlimit="10"/>
<path d="M3 13.4617C3 11.8268 4.10123 10.4531 5.61116 10.0444" stroke="#283593" stroke-width="0.908231" stroke-miterlimit="10"/>
<path d="M5.31592 15.8912C5.31592 13.9385 6.90532 12.3491 8.85802 12.3491" stroke="#283593" stroke-width="0.908231" stroke-miterlimit="10"/>
<path d="M8.40405 17.6168C8.40405 15.6641 9.99346 14.0747 11.9462 14.0747C13.8988 14.0747 15.4883 15.6641 15.4883 17.6168" stroke="#FF1744" stroke-width="0.908231" stroke-miterlimit="10"/>
<path d="M11.9461 14.0521C13.0496 14.0521 13.9442 13.1575 13.9442 12.054C13.9442 10.9505 13.0496 10.0559 11.9461 10.0559C10.8426 10.0559 9.948 10.9505 9.948 12.054C9.948 13.1575 10.8426 14.0521 11.9461 14.0521Z" stroke="#FF1744" stroke-width="0.908231" stroke-miterlimit="10"/>
</svg>
