<svg width="24" height="25" viewBox="0 0 24 25" fill="none" xmlns="http://www.w3.org/2000/svg">
<path d="M9.70425 10.8524C9.52126 10.8854 9.32163 10.902 9.122 10.902C7.1756 10.902 5.57856 9.34984 5.57856 7.45098C5.57856 5.55212 7.15896 4 9.122 4C10.5 4 11.5176 4.66047 12.1497 5.65119M3 17.0279C3 13.6429 5.81146 10.902 9.27172 10.902" stroke="#283593" stroke-miterlimit="10"/>
<path d="M8.45654 19.9999C8.45654 16.6149 11.268 13.8739 14.7283 13.8739C18.1885 13.8739 21 16.6149 21 19.9999M18.2717 10.3899C18.2717 12.2888 16.6913 13.8409 14.7283 13.8409C12.7652 13.8409 11.1848 12.2888 11.1848 10.3899C11.1848 8.49108 12.7652 6.93896 14.7283 6.93896C16.6913 6.93896 18.2717 8.49108 18.2717 10.3899Z" stroke="#FF1744" stroke-miterlimit="10"/>
</svg>
